<?xml version="1.0" encoding="utf-8"?>
<!-- Svg Vector Icons : http://www.onlinewebfonts.com/icon -->
<!DOCTYPE svg PUBLIC "-//W3C//DTD SVG 1.1//EN" "http://www.w3.org/Graphics/SVG/1.1/DTD/svg11.dtd">
<svg version="1.1" xmlns="http://www.w3.org/2000/svg" xmlns:xlink="http://www.w3.org/1999/xlink" x="0px" y="0px" viewBox="0 0 1000 1000" enable-background="new 0 0 1000 1000" xml:space="preserve">
<metadata> Svg Vector Icons : http://www.onlinewebfonts.com/icon </metadata>
<g><g transform="translate(0.000000,512.000000) scale(0.100000,-0.100000)"><path d="M100,120v-4919.2h4900h4900V120v4919.2H5000H100V120z M8737.5,4384c-38.4-34.6-82.6-86.5-98-115.3c-36.5-74.9-34.6-242.1,7.7-322.8c117.2-230.6,445.8-261.3,607.2-55.7l50,63.4V120v-3833.5l-50,63.4c-130.7,165.3-382.4,186.4-534.2,46.1c-71.1-67.3-107.6-155.7-107.6-263.3c0-117.2,36.5-197.9,123-274.8l71.1-61.5H5000H1193.4l71.1,61.5c38.4,34.6,82.6,90.3,96.1,124.9c36.5,86.5,32.7,232.5-7.7,311.3c-117.2,230.6-445.8,261.3-607.2,55.7l-50-63.4V120v3833.5l50-63.4c161.4-205.6,490-174.9,607.2,55.7c40.3,78.8,44.2,224.8,7.7,311.3c-13.5,34.6-57.6,90.3-96.1,124.9l-71.1,61.5H5000h3806.6L8737.5,4384z M1195.3,4360.9c246-163.3,140.3-551.5-148-551.5c-178.7,0-295.9,105.7-307.5,276.7c-9.6,117.2,34.6,211.4,128.8,276.7C955.1,4422.4,1106.9,4422.4,1195.3,4360.9z M9131.4,4362.8c188.3-128.7,172.9-428.5-26.9-522.7c-96.1-44.2-222.9-40.4-299.8,13.4c-186.4,124.9-186.4,382.4,0,507.3C8893.1,4422.4,9044.9,4422.4,9131.4,4362.8z M1195.3-3613.6c184.5-123,184.5-384.3,0-507.3c-88.4-61.5-240.2-61.5-326.7,0c-176.8,119.1-178.7,386.3-1.9,505.4C958.9-3554,1105-3552.1,1195.3-3613.6z M9133.3-3615.5c246-167.2,128.7-549.6-167.2-549.6c-301.7,0-415.1,382.4-161.4,551.5C8895-3552.1,9041.1-3554,9133.3-3615.5z"/><path d="M1844.8,3227.2c48-48,84.6-107.6,94.2-148c11.5-57.6,15.4-61.5,23.1-23.1c9.6,38.4,28.8,25,199.8-146c172.9-172.9,186.4-192.2,174.9-246c-11.5-57.6-13.4-57.6-109.5-51.9c-76.9,5.8-115.3-1.9-161.4-30.7c-130.7-82.6-121.1,90.3-121.1-2490.4c0-2580.7-9.6-2409.7,121.1-2488.4c65.3-40.4,186.4-50,240.2-21.1c26.9,15.4,32.7,7.7,32.7-48c0-59.6-25-90.3-228.7-292.1c-149.9-148-224.8-209.5-217.1-180.6c5.8,23.1,1.9,38.4-7.7,30.8c-9.6-5.8-17.3-26.9-17.3-48c0-21.2-34.6-74.9-76.9-121.1c-99.9-107.6-99.9-138.3-1.9-42.2c42.3,40.3,109.5,90.3,149.9,109.5c44.2,23.1,53.8,32.7,25,25c-34.6-7.7,11.5,48,172.9,209.4c213.3,213.3,222.9,221,292.1,211.4c67.3-9.6,69.2-11.5,50-65.3c-40.3-115.3,26.9-255.6,146-313.2c59.6-26.9,284.4-30.7,2375.1-30.7h2309.7l73,40.4c101.8,57.7,142.2,140.3,130.7,263.3l-9.6,96.1l63.4,7.7c59.6,7.7,78.8-7.7,280.6-211.4c159.5-161.4,203.7-215.2,169.1-207.5c-28.8,7.7-19.2-1.9,25-25c40.4-19.2,107.6-69.2,149.9-109.5c98-96.1,98-65.4-1.9,42.2c-42.3,46.1-76.9,99.9-76.9,121.1c0,21.1-7.7,42.3-17.3,48c-9.6,7.7-13.4-7.7-7.7-30.8c7.7-28.8-65.3,30.8-209.5,174.9c-207.5,203.7-221,221-219,290.1c0,63.4,5.8,71.1,34.6,55.7c92.2-50,259.4,5.8,322.8,107.6c38.4,61.5,38.4,90.3,38.4,2402c0,2311.6,0,2340.5-38.4,2402c-63.4,101.8-230.6,157.6-324.8,107.6c-26.9-15.4-32.6-7.7-34.6,53.8c-3.8,67.3,9.6,86.5,194.1,269c176.8,174.9,197.9,192.2,192.2,144.1c-5.8-46.1-3.8-44.2,13.4,11.5c11.5,36.5,55.7,103.8,99.9,149.9c44.2,44.2,71.1,80.7,59.6,80.7c-11.5,0-44.2-26.9-76.9-59.6c-30.8-32.7-90.3-76.9-132.6-98c-44.2-21.1-57.6-32.7-30.7-26.9c34.6,7.7-3.8-42.3-148-186.4c-182.5-184.5-201.8-197.9-271-196c-67.3,0-73,3.8-55.7,36.5c30.7,55.7,21.1,176.8-15.4,240.2c-17.3,30.7-65.3,74.9-103.8,96.1c-73,40.4-73,40.4-2382.7,40.4c-2090.7,0-2315.5-3.8-2375.1-30.7c-119.1-57.6-186.4-197.9-146-311.3c19.2-55.7,17.3-57.6-40.3-67.3s-76.9,5.8-263.3,190.2c-140.3,140.3-186.4,196-148,182.5c80.7-30.7,61.5-7.7-28.8,32.7c-46.1,21.1-107.6,63.4-138.3,98c-32.7,32.7-65.3,59.6-76.9,59.6S1800.6,3273.3,1844.8,3227.2z M2882.4,3010c65.3-74.9,57.6-186.4-15.4-261.3c-53.8-51.9-69.2-57.6-140.3-48c-101.8,13.5-167.2,84.6-167.2,178.7c0,90.3,28.8,140.3,101.8,172.9C2742.2,3086.9,2828.6,3071.5,2882.4,3010z M7025.3,3017.7c-42.3-82.6-42.3-205.6,0-270.9l34.6-51.9h-2058c-1131.8,0-2058,5.8-2058,15.4c0,7.7,13.5,30.7,28.8,50c44.2,57.6,36.5,207.5-11.5,269l-38.4,50h2067.6H7058L7025.3,3017.7z M7334.7,3050.4c138.4-67.3,144.1-257.5,9.6-326.7c-82.6-42.3-146-34.6-215.2,26.9c-51.9,46.1-63.4,69.2-63.4,132.6c0,80.7,44.2,148,115.3,178.7C7238.6,3085,7265.5,3083.1,7334.7,3050.4z M2502,2685.3c11.5-15.4,19.2-40.4,15.4-57.6c-3.8-25-17.3-19.2-61.5,26.9c-51.9,55.7-53.8,59.6-17.3,59.6C2459.7,2714.1,2488.5,2700.7,2502,2685.3z M7546.1,2656.5c-59.6-63.4-105.7-51.9-69.2,17.3c15.4,25,40.3,40.4,73,40.4h51.9L7546.1,2656.5z M2438.6,2633.4c53.8-50,55.7-73,9.6-73c-44.2,0-80.7,36.5-80.7,80.7C2367.5,2687.2,2384.7,2685.3,2438.6,2633.4z M5000,2618c2010,0,2334.7,3.8,2380.8,28.8c53.8,26.9,55.7,26.9,63.4-28.8c7.7-50-38.4-101.8-543.8-607.2c-607.2-607.2-578.4-588-643.7-418.9c-63.4,165.3,1.9,351.6,153.7,440c107.6,63.4,155.6,65.3,126.8,5.8l-21.1-44.2l32.7,44.2c21.1,28.8,51.9,42.3,96.1,42.3c88.4,0,82.6,30.7-5.8,44.2c-40.3,5.8-94.1,17.3-121.1,23.1c-30.7,9.6-40.3,7.7-23.1-3.8c17.3-13.4,3.8-28.8-53.8-53.8c-159.5-73-265.2-253.7-244-417c15.4-113.4,98-238.3,197.9-295.9c184.5-107.6,417-51.9,538,128.8c51.9,76.9,61.5,84.5,82.6,57.6c17.3-25,17.3-23.1,1.9,11.5c-9.6,23.1-19.2,84.6-19.2,138.3c0,53.8-7.7,98-19.2,98c-9.6,0-19.2-32.7-19.2-71.1c0-50-15.4-88.4-51.9-128.7c-30.7-32.7-40.3-48-25-34.6c46.1,40.4,59.6,25,30.7-32.7c-73-138.4-240.2-213.3-392-174.9c-190.2,48-213.3,13.5,395.8,618.8c495.8,495.8,557.3,549.6,603.4,540c50-9.6,50-11.5,23.1-74.9c-23.1-53.8-26.9-430.4-26.9-2367.4c0-2161.8,1.9-2305.9,34.6-2367.4l32.7-67.3H7523c-57.6,0-115.3,51.9-582.2,518.8C6656.4-1546,6422-1305.8,6422-1298.1c0,59.6,280.5,98,370.9,51.9c63.4-32.7,148-115.3,178.7-176.8c28.8-53.8,28.8-53.8-15.4-32.7c-44.2,21.1-44.2,21.1,1.9-19.2c34.6-28.8,48-61.5,48-115.3c1.9-80.7,30.7-130.7,32.7-55.7c1.9,113.4,11.5,182.5,26.9,219.1c15.4,38.4,13.5,38.4-13.5,1.9c-28.8-36.5-30.7-36.5-42.3,3.8c-42.3,132.6-203.7,234.4-367,234.4c-232.5,0-393.9-163.3-393.9-393.9c0-174.9,98-319,257.5-376.6c61.5-21.2,63.4-26.9,34.6-50c-28.8-25-28.8-25,5.8-9.6c21.1,11.5,78.8,25,130.7,32.7c50,7.7,90.3,23.1,90.3,32.7c0,11.5-26.9,15.4-67.3,9.6c-57.6-9.6-71.1-3.8-96.1,40.4c-25,44.2-28.8,44.2-19.2,9.6c32.7-117.2-199.8,15.4-272.9,153.7c-55.7,107.6-32.7,292.1,48,384.3c28.8,32.7,63.4,1.9,563-497.7c474.6-474.6,530.4-538,516.9-576.5c-9.6-23.1-11.5-48-5.8-53.8c25-23-25-9.6-59.6,17.3c-57.6,42.3-4675.2,42.3-4755.9,0c-53.8-26.9-55.7-26.9-67.3,34.6c-11.5,59.6,3.8,76.9,515,588l528.4,528.4l42.3-92.2c74.9-171,9.6-388.1-138.4-465c-57.6-28.8-61.5-28.8-50,3.8c9.6,26.9,3.8,25-17.3-7.7c-23.1-28.8-51.9-42.3-96.1-42.3c-36.5,0-65.3-7.7-65.3-19.2c0-9.6,34.6-19.2,74.9-19.2c42.3,0,98-7.7,126.8-19.2c32.7-13.4,46.1-13.4,38.4,0c-5.8,11.5-25,19.2-42.3,19.2c-17.3,0,7.7,26.9,57.6,59.6c105.7,69.2,186.4,215.2,186.4,332.4c0,242.1-230.6,440-468.9,401.6c-99.9-15.4-242.1-115.3-286.3-203.7c-34.6-67.2-38.4-69.2-65.3-38.4c-25,32.7-25,30.7-7.7-7.7c11.5-23.1,21.1-80.7,21.1-128.8c0-90.3,13.5-146,38.4-146c7.7,0,9.6,42.3,3.8,92.2c-7.7,84.6-3.8,98,44.2,134.5c28.8,23.1,44.2,42.3,34.6,42.3c-9.6,0-26.9-9.6-40.3-23.1c-30.7-30.7-28.8-5.8,5.8,61.5c38.4,75,134.5,146,234.4,171c94.2,25,217.1,1.9,294-55.7l48-36.5L3040-1830.4c-430.4-430.4-534.2-526.5-566.9-516.9c-53.8,17.3-53.8,19.2-30.7,63.4c30.7,55.7,30.7,4694.4,0,4750.1c-23.1,46.1-23.1,46.1,40.4,61.5c44.2,11.5,107.6-46.1,605.3-545.7c526.5-526.5,555.3-559.2,518.8-586.1c-44.2-32.7-153.7-65.3-221-65.3c-76.9,1.9-197.9,65.3-265.2,142.2c-73,84.5-80.7,117.2-17.3,88.4c34.6-17.3,32.7-13.5-9.6,23.1c-42.3,36.5-53.8,61.5-53.8,126.8c0,44.2-7.7,80.7-19.2,80.7c-9.6,0-19.2-44.2-19.2-98c0-53.8-9.6-115.3-21.1-138.3c-17.3-38.4-17.3-38.4,7.7-7.7c25,30.7,28.8,28.8,51.9-25c34.6-82.6,157.6-186.4,253.7-211.4c224.8-61.5,466.9,94.2,505.4,324.7c28.8,169.1-84.5,370.9-244,434.3c-63.4,25-74.9,36.5-51.9,51.9c21.1,15.4,19.2,17.3-7.7,7.7c-21.1-5.8-57.6-15.4-82.6-21.1c-25-5.8-67.3-13.5-94.2-19.2c-69.2-15.4-44.2-44.2,28.8-32.7c40.4,5.8,67.3-1.9,90.3-28.8c19.2-19.2,26.9-25,17.3-11.5c-59.6,88.4,119.1,26.9,207.5-71.1c115.3-128.8,134.5-299.8,48-442l-40.4-63.4l-561.1,561.1c-515,515-561.1,566.9-553.4,616.8c7.7,55.7,9.6,55.7,63.4,28.8C2665.3,2621.9,2990,2618,5000,2618z M7615.2,2600.8c-15.4-25-40.3-40.4-73-40.4h-51.9l55.7,57.6C7605.6,2681.5,7651.8,2669.9,7615.2,2600.8z M2290.6,2512.4c113.4-59.6,132.6-205.6,40.4-299.8c-74.9-73-167.2-74.9-249.8-5.8c-48,40.4-59.6,63.4-59.6,126.8c0,94.2,25,140.3,92.2,176.8S2221.4,2548.9,2290.6,2512.4z M7880.4,2514.3c165.2-86.5,103.8-357.4-82.6-357.4c-98,0-192.1,86.5-192.1,176.8C7605.6,2491.2,7745.9,2583.5,7880.4,2514.3z M2204.1,2080c32.7,0,90.3,17.3,130.7,38.4l71.1,38.4V91.2v-2065.7l-71.1,38.4c-92.2,48-169.1,48-261.3,0l-71.1-38.4V91.2v2065.7l71.1-38.4C2113.8,2097.3,2171.4,2080,2204.1,2080z M7795.9,2080c30.7,0,86.5,17.3,121.1,38.4l61.5,38.4V91.2v-2065.7l-61.5,38.4c-78.8,48-159.5,48-251.7,1.9l-71.1-36.5V91.2V2153l71.1-36.5C7705.6,2097.3,7763.2,2080,7795.9,2080z M2330.9-2030.2c98-99.9,69.2-255.6-57.6-309.4c-126.8-51.9-251.7,38.4-251.7,180.6c0,71.1,9.6,92.2,59.6,134.5C2163.8-1955.3,2256-1957.2,2330.9-2030.2z M7934.2-2041.8c80.7-92.2,42.3-251.7-71.1-297.9c-123-51.9-257.5,46.1-257.5,184.5c0,55.7,13.4,82.6,63.4,126.8c55.7,49.9,74.9,57.6,144.1,48C7865-1988,7907.3-2009.1,7934.2-2041.8z M2463.5-2393.4c0-9.6-21.1-36.5-48-61.5c-48-44.2-48-44.2-48-3.8c0,21.2,15.4,50,34.6,59.6C2442.4-2374.2,2463.5-2372.3,2463.5-2393.4z M7601.8-2408.8c30.7-30.8,42.3-84.6,17.3-84.6c-19.2,0-101.8,80.7-101.8,99.9C7517.3-2366.5,7571.1-2376.1,7601.8-2408.8z M2517.3-2468.4c-3.8-42.3-17.3-55.7-57.6-59.6c-65.3-7.7-67.3,7.7-11.5,67.2C2502-2403,2525-2404.9,2517.3-2468.4z M7553.8-2527.9c-50-7.7-98,42.3-80.7,86.5c7.7,21.1,23.1,15.4,67.2-26.9C7596-2522.1,7596-2522.1,7553.8-2527.9z M2869-2568.3c42.3-44.2,55.7-74.9,55.7-132.6c0-146.1-121.1-226.7-255.6-169.1c-78.8,32.6-109.5,78.8-109.5,169.1C2559.6-2533.7,2751.8-2451.1,2869-2568.3z M7015.7-2599c-38.4-88.4-36.5-144.1,15.4-244l26.9-53.8H4990.4H2922.8l38.4,49.9c48,61.5,55.7,211.4,11.5,269c-15.4,19.2-28.8,42.3-28.8,51.9c0,7.7,924.3,13.5,2054.2,13.5h2056.1L7015.7-2599z M7344.3-2541.4c136.4-71.1,128.8-259.4-13.5-326.7c-130.7-61.5-265.2,23-265.2,167.2c0,63.4,11.5,86.5,63.4,132.6C7198.3-2506.8,7261.7-2499.1,7344.3-2541.4z"/><path d="M2636.5,2983.1c-113.4-113.4,26.9-295.9,171-222.9c88.4,46.1,103.8,128.7,38.4,211.4C2796,3035,2694.1,3040.8,2636.5,2983.1z"/><path d="M7152.2,2983.1c-107.6-107.6,26.9-297.8,159.5-228.7c96.1,51.9,115.3,134.5,50,217.1C7311.6,3035,7209.8,3040.8,7152.2,2983.1z"/><path d="M4846.3,905.9c-405.5-78.8-707.1-507.3-636-907c115.3-655.3,912.8-905.1,1364.3-426.6c436.2,461.2,188.3,1218.3-438.1,1335.5C5017.3,929,4967.3,929,4846.3,905.9z M5136.4,850.2C5526.5,775.3,5801.3,389,5734,4.7C5626.4-602.5,4884.7-835,4465.8-391.1c-280.5,297.9-280.5,724.4,0,1022.3C4642.6,817.5,4884.7,898.2,5136.4,850.2z"/><path d="M4827.1,736.8c-176.8-57.6-313.2-172.9-397.8-334.4c-48-88.4-53.8-121.1-53.8-282.5c0-161.4,5.8-194.1,53.8-282.5c65.3-126.8,161.4-222.9,288.2-288.2c88.4-48,121.1-53.8,282.5-53.8c161.4,0,194.1,5.8,282.5,53.8c126.8,65.3,222.9,161.4,288.2,288.2c48,88.4,53.8,121.1,53.8,282.5c0,161.4-5.8,194.1-53.8,282.5c-115.3,221-295.9,336.3-541.9,344C4944.3,750.3,4854,746.4,4827.1,736.8z M5261.3,642.7c107.6-53.8,247.9-215.2,284.4-324.8c74.9-219.1,23-438.1-140.3-603.4c-224.8-224.8-555.3-234.4-789.8-23.1C4465.8-174,4433.1-99.1,4433.1,120c0,209.4,21.1,265.2,151.8,399.7c134.5,142.2,228.7,178.7,443.9,169.1C5138.4,684.9,5205.6,671.5,5261.3,642.7z"/><path d="M4980.8,658c0-15.4-21.1-98-48-184.5l-48-155.6l-176.8,42.3c-98,25-182.5,40.4-186.4,36.5c-5.8-5.8,50-69.2,123-142.2L4777.1,120L4648.4-10.7c-71.1-71.1-128.7-134.5-128.7-142.2c0-5.8,82.6,7.7,182.5,32.7l182.5,42.3l48-155.7c26.9-86.5,48-169.1,48-184.5c0-59.6,36.5,17.3,84.6,174.8l50,165.3l182.5-42.3c99.9-25,182.5-38.4,182.5-32.7c0,7.7-57.6,71.1-128.8,142.2L5222.9,120l132.6,134.5c73,73,128.8,136.4,123,142.2c-3.8,3.8-88.4-11.5-186.4-36.5l-176.8-42.3l-50,165.3C5017.3,640.8,4980.8,717.6,4980.8,658z M5038.4,369.8c13.4-53.8,30.7-99.9,40.3-105.7c13.4-9.6,71.1,1.9,219.1,42.3c25,5.8,5.8-23.1-57.6-88.4l-94.2-98l94.2-98c63.4-65.3,82.6-94.2,57.6-88.4c-148,40.4-205.6,51.9-219.1,42.3c-9.6-5.8-26.9-51.9-40.3-105.7c-13.5-51.9-30.8-96.1-38.4-96.1s-25,44.2-38.4,96.1c-13.5,53.8-30.7,99.9-40.4,105.7c-13.4,9.6-71.1-1.9-219.1-42.3c-25-5.8-5.8,23.1,57.6,88.4l94.2,98l-94.2,98c-63.4,65.3-82.6,94.2-57.6,88.4c148-40.4,205.6-51.9,219.1-42.3c9.6,5.8,26.9,51.9,40.4,105.7c13.5,51.9,30.7,96.1,38.4,96.1S5025,421.7,5038.4,369.8z"/><path d="M2142.6,2473.9c-111.4-46.1-107.6-205.6,3.8-251.7c80.7-32.7,176.8,7.7,194.1,80.7C2373.2,2429.7,2261.8,2523.9,2142.6,2473.9z"/><path d="M7753.6,2487.4c-55.7-7.7-101.8-73-101.8-140.3c0-132.6,155.6-188.3,244-86.5c53.8,63.4,55.7,107.6,5.8,169.1C7861.2,2483.5,7820.9,2498.9,7753.6,2487.4z"/><path d="M2142.6-2041.8c-111.4-46.1-107.6-205.6,3.8-251.7c80.7-32.7,176.8,7.7,194.1,80.7C2373.2-2086,2261.8-1991.8,2142.6-2041.8z"/><path d="M7753.6-2028.3c-55.7-7.7-101.8-73-101.8-140.3c0-132.6,155.6-188.3,244-86.5c53.8,63.4,55.7,107.6,5.8,169.1C7861.2-2032.1,7820.9-2016.8,7753.6-2028.3z"/><path d="M2680.7-2570.2c-50-21.1-82.6-76.9-82.6-142.2c0-121.1,171-172.9,247.9-76.9c65.3,82.6,46.1,165.3-50,215.2C2747.9-2547.1,2738.3-2547.1,2680.7-2570.2z"/><path d="M7196.3-2570.2c-50-21.1-82.6-76.9-82.6-142.2c0-121.1,171-172.9,247.9-76.9c65.3,82.6,46.1,165.3-50,215.2C7263.6-2547.1,7254-2547.1,7196.3-2570.2z"/></g></g>
</svg>