<?xml version="1.0" standalone="no"?>
<!DOCTYPE svg PUBLIC "-//W3C//DTD SVG 20010904//EN"
 "http://www.w3.org/TR/2001/REC-SVG-20010904/DTD/svg10.dtd">
<svg version="1.0" xmlns="http://www.w3.org/2000/svg"
 width="1556.000000pt" height="1889.000000pt" viewBox="0 0 1556.000000 1889.000000"
 preserveAspectRatio="xMidYMid meet">
<metadata>
Created by potrace 1.16, written by Peter Selinger 2001-2019
</metadata>
<g transform="translate(0.000000,1889.000000) scale(0.100000,-0.100000)"
fill="#000000" stroke="none">
<path d="M6219 18869 c-13 -11 -34 -19 -49 -17 -14 1 -30 -1 -35 -4 -6 -4 -30
-9 -53 -11 -56 -7 -112 -26 -141 -49 -33 -25 -104 -56 -149 -64 -20 -4 -43
-11 -49 -16 -7 -6 -29 -10 -50 -10 -48 1 -95 -20 -139 -64 -20 -19 -46 -34
-59 -34 -14 0 -34 -13 -48 -30 -14 -16 -33 -30 -41 -30 -25 0 -66 -22 -66 -36
0 -14 -22 -24 -56 -24 -13 0 -24 -4 -24 -9 0 -5 -14 -14 -30 -21 -17 -7 -36
-20 -43 -29 -22 -30 -73 -59 -118 -68 -43 -8 -44 -9 -47 -51 -2 -27 -8 -42
-16 -42 -8 0 -24 -13 -37 -29 -13 -16 -27 -27 -32 -24 -4 3 -17 -3 -28 -13
-10 -9 -27 -22 -37 -28 -10 -6 -33 -20 -50 -31 -28 -18 -64 -40 -114 -71 -10
-6 -15 -14 -11 -17 3 -4 1 -7 -4 -7 -6 0 -48 -29 -94 -65 -45 -36 -92 -65
-103 -65 -16 0 -18 -2 -7 -9 11 -7 9 -10 -8 -16 -11 -3 -21 -15 -21 -25 0 -11
-8 -20 -21 -22 -12 -2 -27 -12 -33 -23 -6 -11 -26 -37 -43 -58 -18 -20 -33
-45 -33 -55 -1 -18 -30 -63 -30 -46 -1 16 -29 -40 -30 -58 0 -10 -7 -18 -15
-18 -8 0 -15 -7 -15 -15 0 -9 -11 -20 -25 -25 -14 -5 -25 -15 -25 -22 0 -8
-11 -30 -25 -50 -14 -20 -25 -45 -25 -55 -1 -22 -49 -92 -74 -107 -41 -24 -76
-65 -76 -88 0 -13 -11 -39 -24 -57 -14 -19 -28 -46 -31 -61 -6 -28 -41 -68
-54 -62 -3 2 -8 -5 -10 -14 -3 -18 -12 -31 -48 -70 -13 -14 -23 -36 -23 -49 0
-18 -7 -26 -24 -31 -18 -4 -27 -15 -32 -37 -3 -18 -16 -45 -28 -62 -11 -16
-29 -46 -40 -65 -10 -19 -34 -52 -52 -73 -19 -20 -34 -42 -34 -48 0 -6 -16
-25 -35 -42 -19 -17 -35 -39 -35 -48 0 -10 -5 -21 -10 -24 -6 -4 -8 -10 -6
-14 8 -13 -24 -93 -48 -122 -13 -15 -27 -48 -30 -73 -4 -25 -11 -46 -15 -46
-10 0 -30 -49 -29 -70 1 -8 -8 -35 -20 -58 -23 -47 -31 -92 -36 -187 -3 -53
-33 -168 -57 -217 -5 -10 -9 -35 -9 -55 0 -21 -7 -57 -15 -80 -8 -23 -18 -61
-21 -85 -4 -24 -13 -48 -20 -55 -7 -7 -15 -30 -19 -52 -4 -22 -13 -45 -21 -52
-8 -6 -14 -23 -14 -38 0 -14 -10 -64 -21 -111 -12 -47 -23 -101 -26 -120 -2
-19 -13 -53 -23 -75 -51 -113 -60 -139 -60 -174 0 -21 -9 -58 -20 -82 -11 -24
-20 -60 -20 -79 0 -19 -4 -51 -10 -70 -5 -19 -12 -62 -14 -95 -18 -209 -27
-285 -36 -322 -5 -23 -7 -55 -4 -71 4 -18 0 -41 -10 -61 -9 -17 -12 -31 -7
-31 8 0 18 -53 41 -205 4 -27 8 -116 9 -197 1 -81 6 -159 11 -173 19 -49 51
-257 45 -289 -5 -23 0 -44 14 -72 39 -75 73 -179 86 -264 7 -47 21 -125 30
-175 11 -58 18 -146 19 -245 1 -118 4 -154 14 -152 7 1 12 -8 12 -22 0 -14 5
-28 10 -31 6 -3 10 -14 10 -24 0 -10 8 -29 18 -42 25 -32 33 -61 38 -139 4
-44 11 -69 21 -77 9 -7 17 -28 17 -45 1 -29 -3 -34 -33 -44 -37 -12 -56 -40
-66 -96 -4 -20 -13 -42 -21 -49 -16 -13 -19 -55 -4 -64 6 -3 10 -21 10 -40 0
-18 5 -35 11 -37 21 -7 41 -156 47 -352 5 -138 11 -201 19 -203 7 -3 9 -14 4
-31 -9 -34 -7 -67 7 -95 32 -68 40 -99 41 -162 1 -43 7 -73 14 -77 9 -4 13
-47 15 -135 2 -70 8 -143 14 -162 6 -19 12 -59 14 -90 8 -114 32 -298 44 -326
26 -65 40 -107 36 -114 -3 -4 9 -13 25 -20 27 -12 42 -51 19 -51 -13 0 -13
-37 0 -42 6 -2 11 -20 12 -40 1 -33 5 -39 33 -48 18 -6 45 -12 61 -15 16 -2
40 -6 53 -9 14 -3 34 2 50 13 44 30 67 32 80 5 6 -13 17 -24 25 -24 7 0 16 -7
20 -15 8 -22 33 -18 39 6 5 17 11 20 29 15 13 -3 38 -6 56 -6 l32 0 0 -56 c0
-48 -4 -59 -30 -86 -31 -30 -39 -58 -18 -58 6 0 3 -9 -8 -21 -19 -21 -19 -21
6 -18 17 3 25 10 23 22 -1 14 4 17 20 13 12 -2 31 2 41 10 40 29 81 18 135
-38 27 -28 54 -63 59 -77 26 -71 59 -218 67 -300 4 -36 11 -72 15 -80 32 -65
78 -190 90 -244 4 -21 21 -60 38 -86 16 -27 33 -63 37 -81 4 -17 13 -43 21
-58 8 -15 14 -30 14 -34 0 -6 17 -27 77 -98 18 -20 33 -42 33 -47 0 -6 14 -27
30 -48 17 -21 30 -42 30 -47 0 -5 9 -28 20 -50 11 -23 20 -48 20 -56 0 -14 10
-28 101 -135 43 -51 89 -133 89 -158 0 -11 6 -19 13 -19 9 0 8 -3 -2 -9 -11
-7 -8 -12 12 -25 27 -18 28 -28 8 -64 -13 -25 -8 -72 9 -72 10 0 25 -65 22
-91 -2 -9 2 -36 8 -60 18 -70 30 -175 35 -297 3 -62 10 -122 15 -133 7 -11 7
-26 2 -35 -5 -8 -6 -35 -2 -60 5 -33 4 -44 -6 -44 -10 0 -12 -13 -7 -49 7 -58
-14 -100 -84 -168 -24 -24 -43 -52 -43 -63 0 -26 -25 -75 -50 -100 -16 -16
-50 -82 -50 -97 0 -2 6 -1 13 3 6 4 -6 -13 -28 -37 -47 -53 -70 -70 -160 -116
-22 -11 -44 -29 -50 -39 -5 -10 -18 -25 -29 -33 -10 -7 -30 -27 -45 -44 -14
-17 -36 -41 -49 -53 -12 -12 -27 -35 -33 -52 -6 -17 -27 -49 -47 -70 -67 -71
-91 -107 -103 -155 -11 -42 -16 -47 -40 -47 -15 0 -29 -5 -31 -11 -3 -10 -48
-24 -113 -36 -16 -3 -41 -14 -54 -24 -13 -11 -36 -19 -52 -19 -15 0 -34 -6
-41 -13 -7 -7 -35 -19 -63 -28 -37 -11 -49 -20 -47 -32 3 -19 -14 -24 -20 -6
-5 14 -73 -4 -153 -41 -33 -15 -93 -38 -133 -50 -40 -13 -75 -27 -78 -31 -3
-5 -21 -9 -40 -9 -23 0 -34 -5 -34 -15 0 -16 -49 -45 -75 -45 -8 0 -33 -12
-55 -26 -24 -16 -46 -23 -58 -20 -33 11 -132 -43 -132 -72 0 -11 -58 -34 -70
-27 -5 3 -10 2 -10 -3 0 -5 -6 -9 -13 -9 -7 0 -35 -15 -62 -34 -47 -32 -100
-63 -135 -80 -25 -11 -109 -29 -140 -29 -16 0 -45 -9 -65 -20 -20 -11 -44 -20
-55 -20 -15 0 -137 -54 -202 -90 -10 -6 -24 -10 -32 -10 -8 0 -16 -6 -19 -13
-3 -7 -24 -19 -48 -27 -24 -8 -59 -22 -78 -32 -19 -9 -38 -15 -42 -12 -5 3 -6
-1 -4 -9 4 -9 -10 -17 -47 -26 -29 -8 -62 -20 -73 -27 -11 -8 -31 -14 -46 -14
-15 0 -32 -7 -39 -15 -7 -9 -15 -13 -18 -11 -10 11 -89 -28 -114 -57 -24 -26
-35 -31 -98 -36 -50 -5 -75 -12 -81 -23 -5 -9 -21 -19 -36 -23 -15 -3 -39 -15
-54 -26 -18 -13 -44 -19 -78 -19 -57 0 -101 -16 -101 -38 0 -9 -7 -13 -20 -9
-10 3 -38 -5 -62 -18 -24 -12 -72 -31 -107 -41 -43 -11 -65 -23 -68 -35 -3
-10 -11 -15 -19 -12 -7 2 -19 1 -26 -3 -14 -9 -25 -12 -70 -21 -15 -3 -25 -9
-22 -14 3 -5 -3 -9 -13 -9 -23 0 -87 -23 -104 -37 -8 -6 -40 -16 -71 -23 -32
-7 -58 -17 -58 -22 0 -4 -8 -8 -18 -8 -10 0 -28 -7 -40 -16 -12 -8 -22 -12
-22 -7 0 4 -11 -5 -25 -20 -14 -15 -30 -28 -35 -28 -17 -2 -24 -5 -88 -28 -34
-13 -65 -28 -68 -32 -3 -5 -23 -9 -44 -9 -21 0 -45 -7 -53 -15 -8 -7 -28 -17
-43 -20 -57 -13 -64 -17 -64 -31 0 -10 -14 -14 -54 -14 -47 0 -54 -3 -60 -22
-3 -13 -6 -908 -6 -1990 l0 -1968 7780 0 7780 0 0 2484 c0 2265 -1 2485 -16
2497 -9 7 -39 15 -67 17 -29 2 -54 7 -57 11 -6 9 -122 52 -205 77 -33 9 -86
26 -118 36 -31 11 -78 21 -103 24 -47 5 -72 14 -96 37 -15 14 -96 37 -132 37
-13 0 -45 9 -72 19 -65 26 -140 48 -189 56 -22 4 -56 15 -75 25 -19 10 -60 23
-90 30 -30 7 -63 19 -72 28 -10 8 -30 16 -45 18 -101 10 -132 17 -158 34 -17
11 -40 20 -52 20 -25 0 -132 38 -153 55 -8 7 -37 15 -64 18 -27 2 -51 9 -55
14 -7 10 -160 69 -206 79 -16 4 -41 15 -55 24 -14 9 -38 20 -55 24 -16 4 -54
18 -83 32 -29 13 -62 24 -74 24 -12 0 -29 7 -38 15 -9 9 -44 20 -76 26 -32 6
-88 24 -124 39 -36 16 -83 31 -106 34 -50 7 -177 48 -196 63 -7 7 -41 16 -75
22 -34 5 -71 15 -82 20 -11 6 -33 11 -50 11 -17 0 -31 4 -31 9 0 11 -56 41
-77 41 -7 0 -13 5 -13 10 0 6 -7 10 -15 10 -8 0 -15 4 -15 8 0 5 -16 26 -35
48 -19 21 -35 42 -35 46 0 4 -9 9 -20 13 -11 4 -23 20 -28 37 -4 17 -16 36
-26 42 -31 19 -68 50 -100 85 -17 19 -50 53 -73 74 -24 22 -43 44 -43 48 0 4
-9 18 -21 31 -21 24 -59 119 -59 149 0 10 -14 27 -31 39 -16 12 -59 51 -95 86
-35 35 -69 64 -75 64 -6 0 -32 19 -60 43 -37 31 -49 49 -49 70 0 21 -7 30 -27
38 -30 11 -90 74 -129 135 -18 28 -44 50 -81 69 -33 16 -58 37 -63 51 -5 13
-17 24 -26 24 -20 0 -94 41 -94 52 0 4 -29 22 -65 39 -36 18 -65 36 -65 41 0
5 -12 13 -26 19 -26 9 -26 10 -9 29 10 11 13 20 8 20 -14 0 -21 84 -12 128 4
17 3 32 -2 32 -15 0 -10 69 7 101 9 19 15 54 15 92 -2 116 4 198 15 205 5 4
23 36 38 72 30 67 42 84 114 152 29 29 42 49 42 69 0 15 4 31 10 34 5 3 10 15
10 26 0 10 9 28 20 39 12 12 20 33 20 55 0 19 4 35 9 35 5 0 19 26 31 57 12
32 26 65 31 73 5 8 12 22 15 30 3 8 12 31 20 50 7 19 16 52 20 73 3 20 10 37
15 37 5 0 9 17 9 38 1 36 23 80 38 74 4 -2 9 5 11 15 1 10 9 25 17 33 7 9 13
36 13 60 0 25 7 74 16 110 15 65 17 72 28 100 3 8 8 55 11 105 4 49 11 105 16
125 5 19 11 57 14 85 2 27 9 51 15 53 6 2 11 12 11 21 0 12 14 22 40 31 22 7
40 17 40 22 0 4 9 8 20 8 34 0 48 59 20 80 -4 3 -10 22 -13 43 -5 29 -3 37 10
37 10 0 13 6 9 16 -9 23 57 87 92 88 24 1 27 4 24 29 -4 22 0 27 17 27 15 0
21 -6 21 -21 0 -19 4 -21 38 -14 20 3 42 13 48 21 12 16 34 19 34 5 0 -10 26
-9 36 2 13 13 44 7 44 -8 0 -22 11 -18 49 15 18 16 37 28 41 25 5 -3 14 8 22
25 7 16 20 30 29 30 12 0 15 7 12 25 -3 14 1 31 11 40 12 13 13 20 4 38 -28
55 -29 59 -17 73 10 12 14 11 23 -8 6 -13 19 -24 29 -26 15 -3 17 5 15 65 -2
37 -7 71 -13 76 -6 4 -1 10 12 13 23 6 42 61 29 83 -4 5 -2 12 3 16 7 4 7 15
1 31 -14 36 -12 67 5 100 19 37 19 50 0 58 -17 6 -20 53 -4 58 19 6 14 90 -8
126 -16 25 -22 29 -26 18 -12 -30 -26 -17 -17 14 8 26 6 30 -12 30 -17 0 -18
-2 -8 -15 10 -12 10 -15 -4 -15 -9 0 -16 -3 -16 -6 0 -8 24 -30 40 -37 12 -4
12 -6 -2 -6 -20 -1 -14 -29 10 -47 13 -9 12 -14 -7 -33 -14 -14 -29 -20 -39
-17 -16 6 -16 5 0 -7 14 -11 15 -18 5 -50 -8 -24 -18 -37 -29 -37 -13 0 -18
-8 -18 -26 0 -14 -4 -23 -9 -20 -23 15 -35 -28 -33 -116 2 -77 -1 -93 -18
-115 -11 -14 -17 -29 -14 -34 3 -5 -5 -9 -16 -9 -20 0 -22 -4 -18 -45 l3 -45
-32 6 c-22 4 -37 1 -48 -9 -17 -17 -20 -47 -5 -47 6 0 10 -4 10 -10 0 -5 -21
-10 -46 -10 -57 0 -80 22 -90 85 -8 59 17 161 40 157 9 -2 16 4 16 13 0 9 13
24 30 33 22 12 30 24 30 45 0 15 3 27 8 27 4 0 21 26 37 58 17 31 37 63 45 70
8 8 10 11 4 8 -6 -3 -2 15 9 39 14 29 27 45 39 45 10 0 18 -4 18 -10 0 -5 5
-10 12 -10 9 0 9 3 0 12 -7 7 -12 20 -12 30 0 11 -7 18 -20 18 -20 0 -21 14
-5 67 2 7 -5 19 -15 26 -11 8 -17 17 -13 21 4 3 -3 5 -15 3 -24 -3 -42 -17
-24 -17 7 0 12 -5 12 -12 0 -9 -3 -9 -12 0 -7 7 -20 12 -30 12 -11 0 -18 7
-18 20 0 11 -4 20 -10 20 -5 0 -10 -7 -10 -15 0 -18 -18 -10 -59 25 -21 18
-24 29 -24 81 1 41 -6 76 -20 108 -14 32 -22 75 -26 141 -8 149 -7 293 3 315
4 11 7 56 6 100 -1 70 2 83 19 99 12 11 21 30 21 43 0 13 6 23 14 23 10 0 17
18 23 53 4 28 13 52 18 52 17 0 36 16 30 25 -3 4 3 7 13 6 11 0 18 7 20 21 2
13 13 30 25 38 12 9 21 18 20 20 -9 16 -1 45 12 45 8 0 19 9 25 20 13 24 40
27 40 4 0 -23 24 -11 28 14 2 12 8 22 14 22 6 0 7 -8 3 -17 -27 -67 -24 -103
9 -103 27 0 65 -27 78 -55 12 -28 17 -30 61 -28 41 2 47 -1 47 -17 0 -12 -7
-20 -16 -20 -12 0 -14 -9 -12 -37 3 -35 6 -38 36 -41 l32 -3 0 50 c0 40 -4 54
-20 63 -21 13 -27 44 -10 50 5 2 6 17 1 38 -4 20 -4 44 0 55 14 36 9 89 -11
122 -14 23 -17 39 -11 60 4 15 6 43 4 61 -3 22 0 34 11 38 9 3 13 10 10 15 -3
5 -1 9 4 9 6 0 17 19 27 43 9 23 28 57 42 75 19 25 24 41 19 63 -3 18 2 52 14
88 17 46 21 92 25 224 2 92 9 185 15 208 6 23 10 80 8 128 -1 47 1 92 5 98 5
7 4 28 -1 46 -6 20 -5 93 1 188 7 119 7 169 -3 219 -11 55 -14 138 -9 225 1
11 -2 54 -7 95 -8 75 -8 108 -1 188 2 24 0 45 -5 48 -4 3 -8 36 -8 75 0 52 -3
69 -14 69 -10 0 -13 10 -9 38 3 20 9 38 14 40 16 6 9 41 -16 78 -14 20 -25 44
-25 53 0 15 -38 99 -50 111 -9 9 -5 37 7 52 16 19 11 340 -6 346 -16 5 -32 75
-30 126 2 24 -3 57 -10 75 -11 26 -11 34 2 54 21 32 24 71 8 90 -7 9 -11 24
-7 32 3 9 -1 32 -8 53 -7 20 -19 73 -25 117 -11 82 -13 92 -25 135 -4 14 -2
70 4 125 13 119 13 171 -1 206 -13 33 9 105 32 103 13 -1 15 4 8 25 -26 85
-39 141 -39 161 0 12 -8 29 -17 36 -16 12 -16 15 -3 24 10 6 11 10 3 10 -7 0
-13 11 -13 25 0 14 -3 25 -8 25 -15 0 -72 59 -72 74 0 8 -11 32 -25 52 -14 20
-25 45 -25 54 0 16 -55 70 -71 70 -4 0 -12 29 -19 65 -8 42 -17 65 -26 65 -7
0 -21 12 -31 28 -10 15 -23 31 -30 35 -7 4 -13 15 -13 24 0 9 -11 31 -25 49
-14 18 -25 40 -25 49 0 12 -6 16 -20 12 -10 -3 -28 2 -39 12 -10 9 -35 29 -55
45 -20 15 -36 36 -36 45 0 10 -11 28 -25 41 -14 13 -24 29 -22 34 8 21 -14 47
-34 41 -14 -5 -19 -2 -19 14 0 11 -4 23 -10 26 -19 12 -10 44 20 65 23 16 42
21 78 19 44 -3 47 -2 50 23 2 20 -3 29 -24 40 -40 19 -42 38 -5 38 36 0 40 13
9 28 l-23 11 25 1 c25 1 25 1 3 10 -13 5 -23 18 -23 28 0 24 -10 32 -85 70
-35 18 -85 33 -120 37 -33 4 -94 16 -135 27 -41 10 -82 17 -92 15 -10 -3 -16
-2 -13 3 3 4 -2 11 -11 14 -25 9 -62 7 -66 -4 -2 -7 -13 -7 -33 -1 -17 6 -71
15 -122 21 -50 5 -104 17 -120 25 -15 8 -40 15 -54 15 -14 0 -29 3 -33 7 -7 7
-35 15 -153 44 -24 6 -43 15 -43 20 0 5 -6 9 -14 9 -7 0 -27 7 -42 15 -16 8
-46 15 -66 15 -27 0 -38 4 -38 15 0 10 -10 15 -33 15 -19 0 -48 7 -66 16 -21
10 -44 14 -65 10 -22 -4 -47 0 -75 12 l-42 19 40 21 c22 12 56 21 76 20 21 -1
43 6 55 17 18 17 25 17 55 6 19 -7 44 -10 55 -6 12 4 26 -1 39 -14 23 -23 41
-27 41 -10 0 8 13 9 40 5 56 -9 52 13 -9 42 -26 12 -53 22 -60 22 -8 0 -6 6 4
17 16 15 15 18 -7 34 -12 10 -29 19 -35 19 -16 0 -17 12 -1 28 7 7 10 12 8 13
-45 8 -177 22 -205 22 -126 -2 -243 -16 -273 -34 -18 -10 -38 -19 -44 -19 -15
0 -58 48 -58 66 0 9 -10 14 -28 14 -21 0 -30 7 -40 30 -8 18 -21 30 -32 30
-10 0 -22 5 -25 10 -3 6 -17 10 -30 10 -12 0 -25 7 -29 15 -7 19 -35 19 -42 0
-5 -11 -11 -9 -32 10 -33 30 -54 31 -98 4 -19 -11 -38 -18 -44 -14 -5 3 -18 1
-29 -4 -25 -14 -83 10 -117 47 -18 18 -35 26 -60 26 -18 0 -34 3 -34 6 0 4
-18 15 -40 25 -22 10 -40 24 -40 32 0 7 -6 13 -13 13 -7 0 -18 9 -25 20 -7 11
-19 20 -27 20 -20 0 -19 10 3 26 16 12 15 13 -6 14 -21 0 -78 -33 -93 -54 -4
-5 -35 -6 -70 -3 -84 7 -102 11 -107 25 -2 7 -8 12 -14 12 -6 0 -32 16 -58 35
-26 19 -51 35 -55 35 -4 0 -21 16 -39 36 -18 20 -43 38 -57 39 -13 1 -28 3
-33 4 -4 0 -5 8 -2 16 5 13 -3 16 -47 14 -28 -1 -58 -6 -64 -12 -9 -6 -13 -6
-13 2 0 6 -13 17 -30 26 -25 13 -169 15 -1188 15 -1155 0 -1159 0 -1183 -21z
m2449 -3546 c7 -7 19 -13 25 -14 7 0 21 -3 32 -5 11 -3 45 -7 75 -10 30 -4 56
-10 58 -15 2 -5 21 -13 43 -19 21 -6 39 -15 39 -20 0 -16 47 -60 64 -60 9 0
16 4 16 9 0 5 18 9 40 9 34 1 40 -2 40 -20 0 -15 4 -18 18 -13 9 4 28 10 41
13 23 5 24 3 18 -39 -3 -24 -3 -36 0 -26 3 12 15 17 43 17 37 0 39 -2 45 -37
12 -76 12 -84 4 -89 -5 -3 -9 18 -9 45 0 44 -3 51 -20 51 -17 0 -20 -7 -20
-50 0 -42 5 -55 26 -75 32 -30 63 -40 77 -26 7 7 17 2 33 -16 l23 -27 31 32
c17 18 35 30 41 27 5 -4 8 -1 7 5 -2 6 7 19 20 27 22 15 22 15 22 -21 0 -20 5
-36 10 -36 6 0 10 18 10 40 0 33 3 40 20 40 17 0 20 -7 20 -39 0 -22 -5 -41
-11 -43 -14 -5 -18 -97 -5 -105 5 -3 15 2 23 12 11 17 13 11 13 -46 1 -62 1
-63 18 -43 10 11 29 23 44 26 24 4 26 2 30 -33 2 -28 -1 -40 -12 -43 -8 -2 6
-4 32 -5 44 -1 47 -3 64 -40 9 -22 26 -42 36 -45 11 -2 22 -14 25 -25 3 -12
12 -21 19 -21 8 0 17 -7 20 -15 4 -8 15 -15 25 -15 15 0 19 -7 19 -40 0 -24
-5 -40 -12 -40 -9 0 -9 -3 0 -12 7 -7 12 -20 12 -30 0 -10 5 -18 10 -18 6 0
10 -15 8 -34 -2 -31 -4 -34 -22 -24 -12 6 -33 24 -48 40 -28 29 -28 29 -28 6
0 -13 -5 -29 -11 -35 -14 -14 10 -53 33 -53 10 0 18 -6 18 -14 0 -8 5 -18 12
-22 7 -5 8 -3 3 7 -8 12 -6 12 8 0 9 -7 17 -20 17 -28 0 -10 10 -14 34 -12 19
2 38 0 42 -4 4 -4 1 -7 -8 -7 -8 0 -23 -9 -33 -20 -10 -11 -22 -20 -27 -20 -4
0 -8 9 -8 20 0 29 -34 25 -50 -5 -7 -13 -17 -22 -22 -19 -4 3 -8 -4 -8 -15 0
-14 6 -21 20 -21 26 0 25 -12 -4 -37 -21 -18 -49 -18 -47 1 4 28 -2 36 -24 36
-26 0 -34 -17 -12 -26 7 -2 14 -14 14 -26 1 -12 6 -24 12 -27 5 -3 12 -23 16
-44 4 -20 11 -37 16 -37 5 0 9 -7 9 -15 0 -8 -9 -15 -20 -15 -11 0 -20 -4 -20
-10 0 -18 -2 -25 -11 -42 -13 -24 -29 -23 -29 2 0 17 -7 20 -40 20 -22 0 -40
-4 -40 -10 0 -5 14 -10 30 -10 30 0 41 -14 18 -23 -10 -4 -9 -8 2 -17 11 -9
12 -13 3 -17 -19 -7 -16 -23 4 -23 28 0 6 -12 -38 -20 -39 -7 -41 -7 -52 24
-6 17 -10 34 -9 39 1 4 -7 7 -18 7 -11 0 -20 -7 -20 -15 0 -8 -9 -15 -19 -15
-11 0 -23 -4 -26 -10 -4 -6 10 -10 34 -10 46 0 50 -7 21 -33 -22 -18 -90 -24
-90 -7 0 6 -7 10 -15 10 -8 0 -15 -4 -15 -9 0 -15 -42 -25 -50 -12 -5 9 -11 7
-21 -5 -11 -13 -11 -18 -2 -21 9 -3 10 -10 3 -24 -6 -10 -8 -19 -5 -19 3 0 -2
-13 -12 -30 -17 -30 -46 -39 -58 -20 -11 17 -43 11 -58 -11 -10 -14 -30 -22
-59 -25 -69 -8 -86 -13 -103 -30 -10 -11 -37 -17 -76 -19 -46 -2 -63 -7 -78
-24 -10 -11 -23 -21 -29 -21 -5 0 -15 -13 -20 -30 -6 -16 -24 -43 -41 -59 -16
-16 -37 -43 -45 -60 -9 -17 -21 -31 -26 -31 -6 0 -10 -11 -10 -25 0 -15 -6
-25 -15 -25 -8 0 -21 -13 -30 -30 -17 -33 -56 -75 -84 -90 -20 -10 -31 3 -31
40 0 14 -9 19 -40 22 -22 2 -40 1 -40 -2 0 -5 -9 -7 -63 -13 -19 -2 -22 -7
-18 -32 4 -27 2 -29 -12 -16 -14 11 -22 11 -49 -2 -18 -8 -47 -18 -65 -22 -33
-7 -52 -33 -31 -46 9 -6 9 -11 0 -22 -7 -7 -8 -18 -4 -22 4 -5 2 -5 -4 -2 -7
4 -17 0 -24 -8 -7 -9 -21 -13 -31 -10 -11 4 -19 2 -19 -5 0 -6 5 -8 10 -5 6 3
12 -1 15 -9 3 -9 8 -24 12 -33 3 -10 6 -21 5 -25 -1 -4 4 -5 12 -2 8 3 17 1
20 -4 3 -5 -4 -12 -17 -16 -13 -4 -18 -9 -12 -13 6 -5 22 -23 35 -42 22 -32
25 -47 29 -143 1 -25 6 -38 15 -38 11 0 13 -10 10 -38 -3 -24 1 -45 10 -57 14
-18 15 -18 16 -2 0 19 20 24 20 4 0 -24 25 -67 39 -67 14 0 64 -35 95 -65 15
-16 36 -16 47 -2 3 5 9 1 12 -8 4 -9 3 -13 -3 -10 -6 4 -10 -10 -10 -34 0 -34
-3 -41 -20 -41 -18 0 -20 -7 -20 -80 0 -73 -2 -80 -20 -80 -17 0 -20 -7 -20
-40 0 -33 3 -40 20 -40 18 0 25 11 21 33 -1 5 3 6 8 3 5 -3 11 1 15 9 9 24 23
18 45 -19 13 -20 21 -49 20 -72 -1 -22 -3 -31 -6 -21 -11 43 -83 88 -83 52 0
-8 -7 -15 -15 -15 -9 0 -18 7 -21 15 -4 8 -15 15 -26 15 -18 0 -19 -5 -15 -57
2 -32 8 -68 12 -80 6 -19 4 -23 -14 -23 -18 0 -21 6 -21 40 0 33 -3 40 -20 40
-19 0 -28 -25 -20 -55 2 -5 2 -20 2 -32 -1 -13 6 -27 17 -33 16 -8 18 -19 15
-65 -3 -44 -1 -55 11 -55 9 0 15 10 15 25 0 23 4 25 40 25 36 0 40 -2 40 -25
0 -19 5 -25 21 -25 19 0 20 -4 15 -55 -6 -60 1 -68 30 -30 13 17 27 24 50 23
17 -1 36 2 41 5 7 5 9 0 6 -12 -4 -17 -1 -19 29 -12 51 11 116 4 134 -13 17
-18 59 -21 69 -6 3 6 23 10 44 10 21 0 41 3 45 8 4 4 11 7 14 7 29 2 62 18 62
30 0 23 15 18 30 -10 18 -34 50 -33 50 1 0 24 3 25 27 19 36 -9 38 -12 24 -28
-9 -11 -8 -17 4 -27 21 -17 96 6 103 32 5 21 7 21 33 7 13 -7 18 -16 14 -28
-7 -22 24 -38 36 -20 6 10 13 9 31 -3 18 -11 44 -13 121 -9 87 5 100 4 116
-13 18 -18 19 -18 26 3 5 17 14 21 50 21 34 0 47 5 55 20 6 11 16 17 25 14 13
-5 12 -8 -1 -21 -13 -13 -13 -17 -2 -24 18 -12 58 -11 58 1 0 11 60 2 74 -11
14 -13 60 -11 74 3 9 9 12 9 12 0 0 -12 71 -18 82 -6 4 3 39 8 79 10 44 3 80
10 89 19 18 16 39 20 41 8 1 -5 3 -18 4 -31 3 -29 25 -54 25 -29 0 9 7 17 15
17 8 0 15 4 15 9 0 14 41 25 49 13 3 -6 22 -13 42 -17 31 -6 37 -4 42 14 7 27
34 37 58 23 24 -15 74 -15 116 0 29 11 33 16 33 50 0 38 0 38 43 39 23 1 46 1
50 0 4 -1 3 8 -3 19 -8 16 -8 20 4 20 8 0 17 -6 20 -12 3 -9 16 -1 36 22 29
33 31 34 36 13 3 -12 12 -19 19 -17 7 3 22 -6 33 -20 16 -21 29 -26 65 -26
l45 0 7 80 c7 80 7 80 36 80 30 0 35 -12 31 -64 -2 -16 4 -18 43 -14 42 3 45
1 45 -20 0 -17 -4 -22 -14 -19 -9 4 -16 -3 -19 -19 -2 -14 1 -24 7 -24 27 -1
-22 -20 -50 -20 -17 0 -37 -7 -44 -15 -10 -12 -7 -15 14 -21 14 -3 26 -10 26
-15 0 -5 14 -9 30 -9 23 0 30 -5 30 -19 0 -10 3 -46 6 -80 7 -58 6 -61 -15
-61 -28 0 -27 -16 4 -36 25 -16 34 -44 14 -44 -5 0 -7 -4 -4 -10 10 -16 57
-12 77 7 17 15 18 15 18 -6 0 -12 -4 -19 -10 -16 -6 4 -10 -7 -10 -25 0 -24 4
-31 18 -29 40 4 82 -2 82 -11 0 -5 -7 -10 -15 -10 -9 0 -15 -9 -15 -21 0 -16
5 -20 20 -16 11 3 18 1 15 -3 -3 -5 4 -14 15 -20 11 -6 19 -14 19 -18 -4 -22
3 -32 21 -32 11 0 20 -7 20 -15 0 -11 -11 -15 -42 -15 l-43 0 30 -24 c68 -54
74 -62 73 -96 -1 -23 -10 -43 -31 -63 -21 -20 -27 -34 -23 -50 3 -12 6 -37 6
-54 0 -48 28 -44 33 5 2 20 4 2 5 -40 2 -77 2 -78 -23 -78 -30 0 -32 -12 -6
-31 24 -17 37 -133 14 -125 -11 5 -14 1 -13 -19 1 -3 -6 -13 -15 -21 -8 -9
-15 -22 -15 -30 0 -8 -4 -14 -10 -14 -5 0 -10 -16 -10 -35 0 -29 5 -36 35 -51
38 -18 46 -39 16 -47 -13 -3 -27 5 -42 24 -32 38 -39 36 -39 -11 0 -22 5 -40
10 -40 6 0 10 -11 10 -25 0 -14 5 -25 10 -25 15 0 12 -72 -4 -92 -7 -10 -21
-18 -30 -18 -13 0 -16 -10 -16 -47 0 -30 3 -43 9 -35 6 10 10 8 14 -8 3 -12 3
-19 0 -16 -11 10 -63 -35 -63 -55 0 -10 -7 -19 -15 -19 -8 0 -15 -9 -15 -20 0
-11 6 -20 14 -20 8 0 14 -11 14 -27 0 -23 -2 -25 -12 -10 -7 9 -24 18 -38 21
-21 3 -25 1 -21 -15 4 -15 2 -18 -11 -13 -14 5 -18 0 -15 -22 0 -3 -9 -14 -20
-23 -14 -12 -21 -30 -21 -55 0 -20 -4 -36 -10 -36 -5 0 -10 -25 -10 -55 0 -30
5 -55 10 -55 6 0 10 -11 10 -25 0 -31 -13 -32 -32 -3 -15 22 -38 18 -38 -8 0
-8 10 -14 25 -14 22 0 25 -4 25 -39 0 -22 6 -42 13 -45 10 -5 10 -7 0 -12 -17
-8 -16 -32 2 -50 10 -10 15 -35 15 -68 0 -40 -4 -53 -15 -53 -8 0 -15 6 -15
14 0 7 -4 13 -10 13 -15 0 -12 -40 3 -41 10 0 10 -2 0 -6 -7 -2 -13 -11 -13
-19 0 -20 59 -18 82 3 17 15 18 14 18 -40 0 -48 -3 -57 -18 -57 -14 0 -17 -7
-14 -40 4 -36 2 -40 -18 -40 -11 0 -18 -4 -15 -10 3 -5 2 -10 -4 -10 -5 0 -13
5 -16 10 -3 6 -17 10 -31 10 -18 0 -24 -5 -24 -22 0 -13 -7 -31 -14 -40 -14
-19 -66 -25 -66 -8 0 6 -4 10 -10 10 -5 0 -9 -6 -7 -12 1 -7 -4 -12 -11 -10
-8 1 -12 -3 -10 -10 3 -7 -6 -21 -18 -31 -18 -14 -22 -24 -17 -47 6 -32 -4
-38 -37 -20 -15 8 -19 5 -24 -15 -9 -37 10 -68 37 -59 12 4 24 11 25 15 5 13
52 11 52 -2 0 -6 -8 -9 -18 -7 -15 4 -18 1 -14 -18 2 -13 10 -24 17 -24 7 0
15 -6 18 -14 5 -12 1 -13 -24 -4 -16 5 -27 14 -24 18 3 4 -4 6 -15 3 -18 -5
-27 -34 -21 -67 1 -5 -6 -3 -15 5 -13 11 -18 11 -21 2 -3 -7 -13 -13 -24 -13
-14 0 -19 7 -19 25 0 16 -6 25 -15 25 -11 0 -15 -11 -15 -40 0 -33 -3 -40 -20
-40 -17 0 -20 -7 -20 -40 0 -33 -4 -41 -24 -46 -13 -3 -35 -4 -47 -1 -16 3
-12 5 13 6 31 1 36 4 32 19 -5 14 -4 15 5 2 8 -12 11 -5 11 28 0 37 -5 48 -36
78 -42 39 -44 40 -44 19 0 -11 -11 -15 -40 -15 -29 0 -40 4 -40 15 0 21 -13
19 -27 -5 -7 -10 -22 -24 -34 -31 -20 -10 -21 -9 -17 23 3 32 2 34 -24 30 -30
-5 -29 -2 -33 -119 -2 -36 -12 -53 -23 -36 -10 16 -94 21 -100 5 -2 -7 5 -12
16 -12 10 0 27 -9 37 -20 10 -11 21 -17 25 -15 8 5 20 -18 20 -36 0 -5 -22 -9
-50 -9 -47 0 -50 -2 -50 -26 0 -35 22 -54 64 -54 33 0 36 2 36 30 0 28 2 30
39 30 22 0 42 6 44 13 4 8 14 3 31 -15 14 -16 28 -28 31 -28 10 0 35 28 35 39
0 6 5 11 11 11 8 0 7 5 -1 15 -11 13 -15 13 -21 3 -6 -9 -9 -6 -9 10 0 13 -4
21 -9 18 -5 -3 -11 3 -14 14 -5 20 1 23 48 23 37 0 44 -4 39 -18 -4 -8 -1 -15
5 -15 6 0 11 -11 11 -25 0 -21 5 -25 28 -25 23 0 31 -7 42 -35 7 -19 17 -32
21 -29 4 2 10 0 14 -6 3 -5 0 -10 -8 -10 -8 0 -25 -20 -38 -45 -18 -33 -35
-50 -71 -67 -27 -13 -48 -26 -48 -31 0 -4 -4 -5 -10 -2 -5 3 -10 19 -10 36 0
16 -4 29 -10 29 -14 0 -12 -74 3 -89 10 -11 8 -11 -10 -2 -12 6 -32 11 -44 11
-20 0 -21 -4 -16 -41 5 -35 1 -45 -24 -71 -16 -17 -29 -35 -29 -39 0 -5 -7 -9
-15 -9 -8 0 -15 -6 -15 -14 0 -7 -9 -16 -21 -19 -11 -3 -23 -15 -26 -26 -3
-13 -14 -21 -27 -21 -16 0 -18 -2 -7 -9 23 -15 3 -103 -24 -108 -58 -12 -135
-15 -135 -4 0 15 -81 14 -101 -2 -9 -7 -14 -18 -12 -24 3 -7 -1 -13 -7 -13 -8
0 -9 10 -4 33 4 17 7 42 6 55 -1 16 4 22 18 22 16 0 20 7 20 38 0 27 -3 33
-10 22 -5 -8 -12 -11 -16 -7 -4 3 -3 12 2 19 5 7 9 22 9 33 0 11 4 23 10 27 6
5 3 18 -9 39 -14 24 -15 33 -6 39 11 7 12 98 0 110 -3 3 -13 22 -22 43 -10 20
-24 37 -31 37 -23 0 -37 21 -26 42 5 10 6 18 2 18 -11 0 -36 59 -38 87 0 12
-11 32 -23 44 -13 12 -21 28 -18 36 3 8 6 21 6 29 0 8 9 14 20 14 25 0 26 17
3 23 -10 3 0 3 22 0 39 -4 40 -4 53 34 7 21 18 64 23 96 5 32 13 67 19 77 7
13 7 28 0 46 -6 16 -7 31 -2 36 5 5 7 31 4 58 -4 42 -2 50 12 50 12 0 16 10
16 40 0 22 -5 40 -11 40 -5 0 -7 5 -4 10 4 6 11 8 16 5 5 -4 5 3 0 17 -11 30
-34 29 -41 -1 -5 -20 -7 -22 -18 -9 -12 15 -7 47 9 58 11 8 -14 55 -29 55 -7
0 -21 15 -32 33 -11 17 -27 32 -35 32 -8 0 -15 9 -15 20 0 12 -7 20 -17 21
-17 1 -17 2 0 6 9 2 17 14 17 25 0 20 -1 20 -18 5 -26 -24 -65 -11 -59 19 5
27 -19 32 -56 13 -16 -9 -22 -9 -25 0 -2 6 -26 11 -58 11 -30 0 -54 5 -54 10
0 6 -7 10 -15 10 -8 0 -15 -4 -15 -10 0 -17 -49 -11 -69 8 -10 9 -31 27 -46
40 l-28 23 -14 -21 c-20 -28 -33 -25 -71 15 -24 24 -44 35 -70 37 -34 3 -37 6
-40 36 -3 27 -7 32 -29 32 -17 0 -24 -4 -20 -14 3 -8 -2 -16 -14 -19 -10 -3
-19 -1 -19 4 0 5 -7 9 -15 9 -9 0 -18 7 -21 15 -4 8 -12 15 -20 15 -8 0 -11
-6 -8 -15 4 -9 0 -15 -10 -15 -10 0 -13 -6 -10 -15 5 -12 -3 -15 -39 -15 -26
0 -50 5 -54 13 -4 6 -21 19 -36 27 -35 18 -53 48 -38 63 8 8 6 16 -5 29 -15
16 -15 18 0 24 11 4 16 19 16 50 0 24 5 44 11 44 5 0 8 4 4 9 -3 5 -1 12 5 16
5 3 10 22 10 41 0 30 3 34 25 34 25 0 35 23 15 35 -5 3 -10 15 -10 26 0 10 -7
19 -15 19 -8 0 -15 6 -15 14 0 24 -18 28 -43 11 -13 -8 -27 -12 -32 -8 -4 5
-5 2 -1 -4 5 -10 -4 -13 -32 -13 -26 0 -42 5 -46 15 -3 8 -12 15 -21 15 -8 0
-15 7 -15 15 0 8 -19 27 -42 42 -48 32 -88 70 -81 77 11 10 -20 46 -45 52 -15
4 -36 18 -47 31 -18 22 -28 24 -98 24 -57 0 -82 -4 -90 -14 -7 -8 -24 -17 -39
-21 -14 -3 -40 -17 -56 -31 -17 -14 -44 -28 -60 -31 -20 -4 -29 -11 -25 -19 5
-16 -54 -75 -75 -75 -6 0 -13 -11 -16 -24 -3 -14 -15 -28 -26 -31 -11 -3 -20
-14 -20 -24 0 -11 -13 -20 -40 -28 -22 -6 -43 -7 -45 -3 -6 9 -66 -10 -76 -24
-4 -4 -10 -3 -13 3 -4 6 -22 11 -41 11 -23 0 -39 7 -48 21 -8 11 -23 20 -34
19 -34 -4 -54 0 -48 9 3 5 0 13 -5 16 -6 4 -15 18 -20 31 -9 22 -14 24 -49 18
-35 -6 -43 -3 -68 23 -15 16 -33 37 -39 48 -8 15 -20 18 -55 17 -28 -2 -58 5
-83 18 -25 12 -48 17 -64 13 -21 -5 -24 -3 -19 11 4 10 1 16 -9 16 -8 0 -13 4
-10 9 3 5 -6 11 -19 14 -14 2 -23 2 -20 -1 2 -3 0 -11 -7 -19 -8 -10 -8 -17 0
-25 7 -7 12 -15 12 -19 0 -8 -81 -49 -102 -53 -46 -7 -67 -45 -73 -126 0 -8
-4 -30 -9 -47 -7 -29 -11 -33 -43 -33 -19 0 -41 7 -49 15 -11 11 -20 12 -34 5
-20 -11 -21 -10 -46 38 -8 17 -14 21 -14 11 0 -9 -7 -19 -15 -23 -10 -4 -15 1
-15 14 0 11 -6 20 -14 20 -11 0 -15 -12 -14 -40 0 -22 4 -40 8 -40 3 0 7 -6 8
-12 4 -50 10 -64 39 -87 27 -21 33 -33 33 -63 0 -34 3 -38 38 -48 62 -17 66
-22 52 -66 -31 -102 -44 -124 -71 -124 -15 0 -30 -7 -33 -16 -4 -10 -14 -14
-26 -11 -12 3 -20 0 -20 -8 0 -7 -17 -15 -40 -19 -22 -3 -54 -19 -72 -35 -18
-16 -41 -30 -51 -32 -10 -2 -17 -8 -17 -13 1 -5 -4 -12 -11 -16 -18 -12 -119
-11 -119 1 0 6 -4 8 -9 5 -5 -3 -7 -15 -4 -26 3 -11 0 -20 -6 -20 -6 0 -11 -5
-11 -11 0 -41 -91 -52 -175 -20 -43 16 -53 17 -69 6 -11 -8 -30 -12 -47 -8
-24 5 -30 1 -39 -21 -5 -14 -15 -26 -22 -27 -55 -2 -82 -9 -97 -23 -14 -15
-14 -18 -1 -26 12 -8 11 -10 -6 -10 -12 0 -29 -11 -38 -25 -9 -14 -21 -25 -28
-25 -15 0 -43 -34 -58 -69 -7 -17 -22 -32 -36 -35 -23 -6 -34 -26 -14 -26 6 0
10 -8 10 -18 0 -15 -8 -19 -36 -20 -40 -2 -62 -12 -25 -12 20 0 21 -3 15 -37
-4 -21 -13 -42 -20 -46 -16 -9 -19 -63 -4 -72 14 -9 12 -83 -2 -87 -10 -4 -8
-14 7 -41 10 -20 16 -39 13 -43 -4 -3 6 -20 22 -37 23 -25 27 -34 17 -46 -9
-12 -9 -13 1 -7 8 5 12 1 12 -11 0 -10 6 -27 13 -38 27 -39 67 -172 67 -221 0
-48 -1 -50 -36 -63 -27 -10 -35 -18 -31 -31 6 -22 -12 -52 -20 -32 -3 8 -27
12 -68 12 -54 0 -63 3 -68 20 -3 13 -14 20 -30 20 -33 0 -37 7 -39 69 -2 44
-5 51 -24 51 -12 0 -25 10 -32 24 -6 13 -20 27 -31 31 -12 3 -21 14 -21 23 0
9 -11 48 -25 85 -13 37 -22 74 -19 82 3 7 -4 18 -15 25 -14 7 -21 7 -21 0 0
-5 -9 -10 -20 -10 -11 0 -20 -4 -20 -10 0 -21 -39 -10 -42 13 -2 17 -11 23
-36 25 -18 2 -36 10 -39 18 -7 18 -39 18 -46 0 -6 -14 -30 -16 -43 -3 -11 11
-74 8 -74 -3 0 -5 -18 -10 -40 -10 -29 0 -40 4 -40 15 0 8 5 15 11 15 6 0 9
17 8 43 -2 28 1 41 9 39 7 -1 12 4 12 11 0 8 -7 14 -15 14 -8 0 -12 -4 -9 -8
2 -4 -4 -9 -13 -11 -20 -4 -74 35 -85 61 -4 9 -7 -2 -7 -26 -1 -37 2 -43 19
-43 17 0 20 -7 20 -40 0 -29 -4 -40 -15 -40 -8 0 -15 9 -15 20 0 12 -11 31
-24 43 -19 18 -25 36 -31 100 l-7 77 28 0 29 0 -30 20 c-16 11 -42 22 -56 25
-28 6 -63 60 -51 80 3 5 -2 4 -11 -4 -10 -8 -21 -10 -25 -6 -4 4 -1 10 6 12
21 8 13 33 -10 33 -13 0 -32 7 -43 16 -19 14 -19 15 3 20 26 7 29 22 6 31 -9
3 -21 -3 -30 -16 -15 -21 -16 -21 -45 -4 -27 16 -38 33 -21 33 12 0 1 83 -13
100 -8 8 -28 43 -45 78 -17 34 -33 62 -36 62 -3 0 -2 -4 1 -10 3 -5 1 -10 -4
-10 -6 0 -11 5 -11 10 0 6 -11 10 -25 10 -22 0 -25 4 -25 40 0 26 5 40 13 40
7 0 19 16 26 35 7 19 17 35 22 35 5 0 9 9 9 20 0 25 -9 25 -26 2 -13 -16 -15
-15 -34 8 -20 25 -27 60 -12 60 4 0 6 18 4 40 -3 26 -9 40 -18 40 -10 0 -14
12 -14 40 0 23 -5 40 -11 40 -8 0 -10 17 -7 50 4 42 2 50 -13 55 -18 6 -27 25
-11 25 4 0 13 4 21 9 17 11 -3 53 -23 45 -8 -3 -23 7 -35 25 -12 16 -17 31
-12 33 5 2 5 13 0 27 -9 22 -10 22 -34 7 -16 -11 -23 -12 -20 -4 11 28 21 149
13 154 -4 3 -8 -2 -8 -10 0 -9 -4 -16 -8 -16 -10 0 -32 45 -32 65 0 8 -5 15
-12 15 -6 0 -3 6 7 14 11 8 25 12 32 9 7 -3 13 2 13 11 0 9 -7 19 -15 22 -8 4
-15 15 -15 25 0 11 -7 22 -15 25 -8 4 -12 10 -9 15 3 5 -2 6 -10 3 -9 -3 -16
-1 -16 5 0 6 17 11 40 11 38 0 40 1 40 31 0 18 8 38 18 46 12 10 14 16 5 19
-8 3 -13 23 -13 46 0 33 -6 45 -35 71 -43 38 -44 47 -5 47 l30 0 0 80 c0 73 2
80 20 80 17 0 20 7 20 40 0 22 -4 40 -9 40 -5 0 -9 21 -9 47 -1 37 3 51 24 70
14 12 32 23 40 23 7 0 14 5 14 10 0 6 -9 10 -19 10 -15 0 -20 9 -23 45 -2 25
0 45 4 45 5 0 9 17 9 38 1 23 3 28 6 15 5 -28 20 -30 28 -3 9 27 -4 63 -20 57
-32 -13 -46 42 -20 79 11 16 12 33 6 73 -4 28 -5 51 -2 51 4 0 6 19 4 43 -1
23 1 32 3 21 4 -16 11 -20 25 -17 10 3 19 12 19 20 0 8 3 12 8 10 4 -3 30 6
57 18 l50 24 3 -30 c4 -31 11 -36 30 -17 8 8 9 15 0 25 -6 7 -8 16 -5 19 10
11 58 -6 56 -19 -6 -48 0 -57 41 -57 22 0 40 -3 40 -7 0 -9 48 -33 66 -33 7 0
14 -12 16 -26 l3 -26 27 21 c15 12 25 28 22 35 -8 21 11 28 40 15 31 -15 34
-39 5 -39 -14 0 -19 -5 -17 -17 5 -25 40 -31 36 -7 -2 12 4 20 17 22 11 3 23
9 27 15 4 6 10 9 13 5 9 -8 -21 -65 -37 -71 -7 -2 -10 -7 -7 -11 4 -4 14 0 22
9 9 8 32 15 51 15 29 0 36 -4 36 -20 0 -21 24 -27 36 -9 3 6 15 8 26 6 12 -4
22 1 26 12 6 14 13 16 40 9 20 -6 32 -15 32 -26 0 -23 39 -47 53 -33 16 16 27
14 27 -5 0 -11 5 -14 17 -9 10 3 46 9 80 12 35 3 63 9 63 14 0 13 74 -3 102
-23 16 -11 32 -17 38 -13 14 8 135 18 203 16 71 -3 128 14 120 35 -3 8 0 14 6
14 6 0 11 -7 11 -15 0 -30 66 -48 82 -22 4 6 10 -1 13 -16 4 -15 13 -27 20
-27 7 0 20 -3 29 -6 21 -8 22 32 1 53 -13 12 -13 18 -3 31 12 14 13 13 16 -1
3 -12 14 -17 43 -17 37 0 39 -2 39 -30 0 -31 20 -43 20 -12 1 9 7 28 14 41
l13 23 20 -26 c20 -25 20 -25 39 -5 10 11 24 17 32 14 13 -5 49 21 40 30 -2 2
-29 5 -60 6 -68 3 -89 12 -70 31 16 16 15 28 -3 28 -18 0 -19 14 -2 28 15 13
33 11 65 -6 14 -8 22 -9 22 -2 0 5 7 10 15 10 8 0 15 -8 15 -17 0 -15 2 -16
10 -3 8 12 10 11 10 -7 0 -13 6 -24 13 -24 25 -3 42 3 50 17 5 8 12 12 17 9 4
-3 17 11 29 30 24 41 29 42 63 15 14 -10 29 -16 33 -12 5 4 5 1 1 -5 -4 -7 -2
-13 3 -13 6 0 11 -16 11 -35 0 -34 1 -34 20 -18 22 19 26 34 9 30 -6 -1 -13 6
-14 16 -3 15 -1 16 12 5 8 -7 39 -14 69 -16 l53 -3 4 43 4 43 1 -46 c2 -44 3
-46 28 -41 26 5 26 7 21 58 -3 30 -3 54 1 55 4 0 15 2 26 4 25 5 46 -4 46 -21
0 -8 9 -14 20 -14 17 0 20 -7 20 -41 l0 -41 80 7 c77 7 80 6 80 -14 0 -18 6
-21 40 -21 28 0 40 4 40 14 0 8 3 23 6 33 5 15 4 15 -5 3 -8 -12 -11 -7 -11
22 0 20 -5 38 -12 40 -22 8 1 25 27 21 13 -3 22 -9 19 -14 -3 -5 9 -9 25 -9
24 0 31 -4 31 -20 0 -11 4 -20 10 -20 12 0 31 35 24 43 -12 11 8 48 30 57 21
7 22 13 16 58 -5 44 -4 49 12 44 15 -4 18 2 18 37 0 38 2 41 26 41 21 0 25 4
21 18 -18 56 -19 62 -8 62 6 0 11 17 11 40 0 29 -4 40 -15 40 -11 0 -15 -12
-16 -42 -1 -35 -2 -38 -8 -18 -4 14 -3 37 2 53 5 15 6 46 3 70 -6 39 -7 55 -6
97 0 8 -2 24 -4 35 -2 11 -5 26 -5 33 -1 6 -10 12 -21 12 -11 0 -19 3 -19 8 1
4 -4 21 -10 39 -9 23 -18 31 -32 28 -10 -2 -22 2 -25 8 -4 7 -4 9 1 5 16 -15
43 13 49 49 14 89 16 183 5 183 -8 0 -7 5 1 15 11 13 15 13 21 3 6 -9 18 -2
45 27 32 35 36 47 36 90 1 88 -1 97 -22 102 -14 4 -22 17 -26 44 -6 35 -10 39
-35 39 -15 0 -39 4 -53 10 -17 6 -26 6 -26 0 0 -17 -24 -10 -53 15 -16 14 -27
33 -26 43 3 30 -1 42 -11 42 -10 0 -68 37 -80 51 -3 3 -20 11 -37 18 -18 8
-33 16 -33 20 0 7 -58 34 -77 35 -7 1 -19 11 -28 22 -8 12 -30 25 -49 28 -19
4 -39 13 -46 21 -7 8 -23 15 -35 15 -13 0 -35 6 -50 14 -15 8 -33 12 -40 10
-7 -3 -15 4 -18 15 -7 29 -34 37 -56 16 -18 -16 -20 -15 -26 4 -8 25 -89 52
-121 41 -16 -6 -24 -2 -39 20 -11 16 -22 26 -25 22 -3 -4 -45 -6 -95 -3 -64 3
-81 7 -60 12 l30 7 -32 1 c-24 1 -33 6 -33 19 -1 16 -1 16 -11 0 -5 -10 -19
-18 -29 -18 -10 0 -22 -4 -25 -10 -3 -5 -26 -10 -51 -10 -24 0 -44 5 -44 10 0
6 5 10 11 10 5 0 7 4 4 10 -4 6 -11 5 -20 -3 -8 -7 -10 -16 -4 -21 17 -18 9
-24 -36 -28 -28 -2 -46 1 -49 9 -5 13 15 23 45 23 10 0 19 4 19 10 0 16 -51
24 -71 11 -22 -13 -59 -15 -59 -2 0 5 -36 12 -80 16 -69 6 -80 10 -80 26 0 15
8 19 43 20 l42 2 -35 7 c-19 4 -32 8 -29 9 3 0 0 35 -6 76 -8 48 -9 75 -2 75
6 0 7 26 3 71 -5 49 -4 75 5 85 9 11 8 14 -5 14 -9 0 -16 7 -16 15 0 9 -9 15
-22 15 -13 0 -18 3 -12 8 6 4 16 16 22 27 11 20 11 20 12 -1 0 -12 8 -25 18
-28 49 -19 61 -31 56 -53 -5 -18 -3 -22 9 -17 20 7 30 44 11 44 -12 0 -20 35
-15 64 1 5 -4 13 -11 17 -10 7 -9 9 3 9 13 0 15 10 11 55 l-4 55 41 0 c41 0
41 0 41 38 0 37 1 39 35 40 32 1 65 20 65 37 0 14 27 31 68 43 23 7 40 17 37
23 -4 5 1 12 10 16 10 3 21 0 26 -8 6 -10 13 -3 26 28 11 27 24 43 36 43 9 0
17 -4 17 -10 0 -5 5 -10 11 -10 8 0 7 5 -1 15 -7 9 -10 19 -6 22 4 4 11 1 17
-7 8 -12 13 -10 30 13 11 15 29 27 39 27 20 0 43 23 33 34 -4 4 1 4 12 0 11
-4 23 -11 26 -16 3 -5 12 -2 19 7 11 14 10 17 -7 21 -23 6 -21 39 4 48 8 3 11
10 8 16 -3 5 0 10 7 11 7 0 25 2 40 3 20 1 30 -5 39 -24 l12 -25 6 25 c3 14
15 40 26 58 24 39 66 45 82 10 l10 -23 12 23 c10 18 9 22 -4 22 -51 0 30 49
94 56 66 8 95 21 120 55 12 17 31 29 44 29 23 0 49 13 48 24 -3 24 2 28 15 11
14 -19 15 -19 39 10 13 17 24 24 25 17 0 -10 5 -10 23 -1 12 7 47 13 77 15 30
1 56 7 58 13 2 6 14 11 28 11 17 0 22 4 18 15 -4 8 -2 15 4 15 5 0 12 10 16
23 4 16 8 19 14 9 5 -7 16 -10 25 -6 21 8 22 24 2 24 -8 0 -15 5 -15 11 0 5 4
8 9 4 5 -3 13 0 16 6 4 5 13 8 21 5 8 -3 14 0 14 6 0 9 3 9 12 0 8 -8 18 -5
40 13 16 14 40 28 54 31 15 4 24 13 24 25 0 14 7 19 26 19 17 0 28 6 31 19 5
22 47 33 77 21 24 -8 66 4 66 20 0 5 7 10 15 10 8 0 15 -5 15 -12 0 -6 12 5
28 25 24 32 32 37 67 36 59 -1 67 0 60 11 -4 6 8 10 29 10 19 0 37 4 41 9 8
14 174 58 198 53 4 -1 7 2 7 8 0 11 93 1 98 -11 4 -11 35 1 45 18 10 17 37 17
37 1 0 -8 3 -9 8 -3 23 33 124 37 155 6 16 -16 77 -14 77 3 0 7 -10 17 -22 20
l-23 7 23 11 c12 6 22 15 22 19 0 11 31 -1 48 -18z m1249 -2367 c72 0 135 -4
139 -8 4 -5 28 -8 52 -8 25 0 53 -6 61 -14 22 -19 68 -28 76 -16 10 15 35 -8
35 -31 0 -12 11 -21 33 -27 45 -12 67 -4 67 23 0 21 6 23 51 27 28 1 53 0 56
-4 2 -5 15 -8 29 -8 19 0 24 -5 24 -24 0 -14 5 -28 10 -31 6 -3 10 -14 10 -25
0 -24 31 -35 46 -16 9 13 11 10 12 -16 0 -17 10 -40 20 -51 20 -19 20 -19 33
17 12 34 29 49 29 26 0 -5 8 -10 18 -10 9 0 23 -9 29 -19 8 -13 20 -18 34 -16
30 6 35 13 15 21 -9 3 -16 13 -16 21 0 11 -9 14 -35 11 -37 -4 -44 2 -22 21
21 17 91 -17 106 -51 7 -16 11 -51 9 -78 -3 -48 6 -66 18 -35 4 8 15 15 25 15
17 0 19 -8 19 -63 0 -58 -11 -87 -32 -87 -4 0 -8 7 -8 15 0 11 -11 15 -41 15
l-41 0 3 42 c2 24 -1 43 -8 45 -16 6 -24 -24 -13 -52 9 -22 7 -25 -15 -25 -26
0 -28 5 -25 54 2 24 -1 28 -17 21 -10 -4 -33 -7 -50 -6 -27 1 -33 -2 -33 -19
0 -11 -5 -20 -11 -20 -6 0 -9 -7 -5 -15 3 -9 0 -15 -7 -15 -15 0 -49 65 -40
74 4 3 37 6 75 6 l68 0 0 35 c0 34 -1 35 -40 35 -29 0 -40 -4 -40 -15 0 -22
-17 -18 -23 5 -7 29 -23 25 -37 -11 -7 -17 -16 -26 -19 -21 -7 12 -51 -3 -51
-18 0 -5 -9 -10 -20 -10 -14 0 -18 5 -14 18 5 16 5 16 -9 0 -10 -13 -29 -18
-71 -18 -54 0 -56 1 -57 28 -1 15 -1 33 0 40 1 6 -3 12 -9 12 -5 0 -10 -4 -10
-9 0 -5 -10 -11 -22 -14 -17 -5 -19 -9 -9 -20 9 -12 7 -15 -13 -19 -15 -3 -30
2 -39 12 -22 26 -126 36 -163 17 -16 -8 -53 -14 -82 -14 -34 1 -58 -4 -68 -14
-12 -13 -25 -14 -72 -6 -41 7 -57 7 -60 -2 -2 -6 -22 -11 -44 -11 -21 0 -46
-6 -54 -14 -16 -17 -165 -11 -176 7 -4 7 -16 6 -37 -3 -20 -8 -49 -10 -81 -6
-32 4 -50 3 -50 -4 0 -5 -3 -9 -7 -8 -5 1 -19 -2 -32 -6 -16 -5 -26 -4 -31 5
-6 9 -16 6 -39 -13 -18 -16 -38 -24 -50 -21 -10 2 -22 0 -25 -6 -12 -19 -46
-13 -46 9 0 11 5 20 10 20 6 0 10 -5 10 -12 0 -15 13 -2 16 16 1 7 5 24 9 36
5 17 4 21 -6 15 -8 -5 -11 -4 -6 1 5 5 13 10 18 10 5 1 14 2 19 3 6 0 10 12
10 26 0 17 -6 25 -17 25 -15 0 -16 2 -3 10 10 6 16 6 18 0 4 -11 45 -13 80 -4
15 5 21 12 17 22 -3 9 9 28 33 51 66 62 70 65 87 51 11 -9 18 -8 36 9 l23 21
-29 0 c-35 0 -24 13 13 16 15 1 35 2 45 3 9 0 17 7 17 15 0 9 18 15 53 19 28
3 75 17 102 31 39 20 59 24 90 19 22 -3 99 -6 172 -7z m-3782 -166 c3 -6 17
-7 30 -4 12 3 26 1 30 -5 3 -6 11 -9 16 -6 5 4 9 0 9 -9 0 -8 16 -20 38 -26
20 -7 46 -18 57 -25 25 -15 76 -25 69 -14 -3 5 4 9 15 9 12 0 21 -5 21 -10 0
-6 16 -20 35 -31 37 -22 45 -46 20 -55 -8 -4 -15 -13 -15 -21 0 -8 -4 -12 -9
-9 -12 8 -19 -14 -13 -37 4 -15 13 -17 58 -13 49 3 123 -17 124 -35 0 -3 -18
-12 -40 -19 -21 -7 -39 -16 -38 -19 2 -21 -6 -27 -38 -28 -19 -1 -47 5 -62 13
-15 8 -50 14 -79 14 -28 0 -55 5 -58 10 -8 14 -72 13 -81 -1 -6 -10 -25 -9
-83 5 -14 3 -30 1 -36 -4 -13 -11 -96 -9 -89 2 2 3 -3 14 -12 23 -18 18 -50
16 -46 -3 1 -7 -8 -12 -21 -12 -13 0 -27 -3 -31 -7 -10 -10 -86 -12 -86 -2 0
5 -13 9 -29 9 -41 0 -131 22 -131 32 0 20 -37 5 -55 -22 -14 -21 -25 -28 -40
-24 -32 7 -98 7 -121 0 -27 -10 -64 21 -68 56 -2 15 0 27 3 26 18 -2 22 4 11
17 -7 8 -8 15 -3 15 5 0 9 12 8 28 0 28 0 28 67 23 10 -1 15 -7 12 -14 -3 -8
2 -20 11 -27 13 -11 15 -9 15 14 0 18 11 37 33 57 17 16 32 33 32 37 1 10 78
86 90 87 6 1 22 -10 37 -23 24 -22 29 -23 64 -12 38 13 134 15 192 5 21 -4 32
-2 32 6 0 23 36 38 92 39 31 0 60 -5 63 -10z m2787 -225 c6 -14 19 -25 28 -25
11 0 17 -10 18 -37 2 -21 8 -41 15 -45 11 -7 4 -12 -8 -5 -2 1 -10 -7 -18 -17
-13 -18 -14 -18 -20 3 -4 17 -13 21 -42 21 -29 0 -36 -4 -34 -17 1 -10 1 -36
0 -59 l-1 -41 -45 7 c-52 8 -66 17 -45 30 11 7 9 12 -10 28 l-24 19 22 7 c24
8 29 22 10 29 -7 3 11 3 40 0 35 -4 52 -2 52 6 0 6 17 11 40 11 33 0 40 3 40
20 0 17 -7 20 -40 20 -45 0 -46 0 -25 40 19 37 32 38 47 5z m-302 -193 c0 -7
22 -21 73 -44 21 -10 27 -18 23 -33 -3 -11 -6 -32 -6 -47 0 -28 -1 -28 -64
-28 l-64 0 -3 43 c-7 79 0 117 22 117 10 0 19 -3 19 -8z m1546 -198 c24 -4 54
-66 54 -110 0 -33 -61 -97 -84 -88 -10 4 -23 -2 -34 -16 -13 -16 -31 -23 -60
-26 -23 -1 -47 -6 -53 -10 -8 -5 -10 2 -7 25 3 17 0 31 -6 31 -5 0 4 15 22 33
18 18 32 38 32 43 0 6 11 21 25 34 14 13 25 34 25 46 0 51 8 54 86 38z m-806
-44 c10 0 21 -8 24 -18 4 -10 14 -27 24 -38 51 -56 70 -90 65 -116 -6 -31 -6
-31 -87 -18 -35 5 -68 18 -81 30 -12 11 -27 20 -33 20 -29 0 -92 26 -92 37 0
7 -7 13 -15 13 -16 0 -19 9 -7 26 9 15 116 74 132 74 6 0 19 8 28 17 16 16 17
15 20 -5 2 -14 11 -22 22 -22z m-2834 -130 c8 0 14 -10 14 -25 0 -16 6 -25 15
-25 8 0 15 -5 15 -11 0 -7 -9 -9 -21 -6 -16 4 -30 -4 -54 -30 -31 -34 -35 -36
-84 -31 l-51 5 0 -31 c0 -18 -5 -37 -11 -43 -16 -16 -47 -4 -55 21 -4 11 -11
24 -16 27 -6 4 -3 12 7 20 9 8 34 31 56 52 23 21 50 37 64 37 24 0 47 20 23
21 -7 0 3 6 22 13 19 8 41 12 48 10 8 -2 20 -4 28 -4z m-2882 -606 c9 -3 16
-15 16 -26 0 -11 8 -22 19 -25 16 -4 20 -18 26 -84 5 -58 11 -79 21 -79 8 0
14 -10 14 -26 0 -15 8 -33 18 -40 16 -13 16 -13 0 -14 -15 0 -18 -9 -18 -46 0
-27 -4 -43 -10 -39 -5 3 -12 -6 -16 -21 -5 -19 -2 -31 10 -39 11 -9 16 -28 16
-68 0 -35 5 -57 12 -59 17 -6 -20 -26 -58 -31 -35 -4 -43 -30 -18 -58 16 -17
16 -19 1 -19 -10 0 -17 -4 -17 -10 0 -5 -6 -10 -12 -10 -19 -1 -68 -47 -68
-65 0 -8 8 -15 18 -16 14 0 14 -2 -4 -9 -11 -4 -28 -26 -38 -48 -20 -45 -60
-62 -86 -36 -12 12 -11 14 8 14 28 0 30 30 3 47 -11 7 -24 28 -31 47 -6 20
-16 36 -21 36 -5 0 -9 6 -9 14 0 8 -6 16 -12 19 -10 3 -10 9 0 26 6 11 12 28
12 36 0 8 7 15 16 15 13 0 14 8 9 48 -5 41 -3 51 16 68 11 10 24 17 28 14 3
-3 7 10 9 28 2 22 -1 32 -11 32 -7 0 -14 7 -14 15 0 8 5 15 10 15 5 0 6 7 3
16 -3 8 -2 12 4 9 6 -3 10 5 10 19 0 15 -8 30 -20 36 -21 11 -17 38 7 53 8 5
13 29 13 67 l0 60 43 1 c38 1 39 2 12 8 -24 5 -30 12 -30 31 0 20 6 26 28 28
24 3 27 8 27 38 0 29 3 34 24 34 13 0 31 -3 40 -6z m4782 -1861 c8 -19 11 -28
13 -41 0 -4 21 -16 46 -26 25 -11 45 -25 45 -33 0 -9 13 -13 45 -11 56 2 60
18 5 18 -22 0 -40 5 -40 10 0 16 73 12 97 -5 12 -8 47 -17 79 -20 31 -3 59 -6
60 -8 2 -2 5 -20 8 -40 4 -31 2 -37 -15 -37 -10 0 -19 -4 -19 -9 0 -5 -11 -4
-25 2 -14 7 -25 20 -25 30 0 26 -22 16 -38 -16 -7 -15 -21 -27 -30 -27 -10 -1
-5 -6 13 -14 16 -7 25 -15 19 -19 -6 -3 -36 7 -67 23 -40 21 -57 25 -57 16 0
-15 -24 -28 -34 -19 -11 12 -124 15 -131 4 -8 -14 -75 -14 -75 0 0 13 -53 3
-58 -11 -2 -4 -20 -6 -41 -3 -41 6 -111 -12 -111 -28 0 -5 -15 -9 -34 -7 -19
1 -33 5 -30 9 6 10 -26 20 -47 14 -9 -3 -34 1 -53 9 -35 15 -185 16 -243 2
-13 -3 -23 -1 -23 4 0 5 -15 6 -34 3 -23 -3 -42 0 -57 11 -30 21 -73 20 -106
-1 -31 -20 -36 -22 -130 -30 -40 -3 -73 -9 -73 -13 0 -4 -7 -7 -15 -7 -8 0
-15 4 -15 9 0 5 7 11 15 14 8 4 15 12 15 20 0 10 13 14 41 14 31 0 40 4 36 14
-7 18 39 66 63 66 11 0 20 4 20 9 0 5 15 8 33 7 34 -3 61 10 51 25 -3 5 13 9
35 9 25 0 41 -5 41 -12 0 -6 10 -2 23 10 13 12 28 22 34 22 6 0 13 7 17 15 8
22 26 18 26 -5 0 -18 5 -20 43 -16 38 4 52 -1 107 -37 54 -35 64 -39 74 -26
15 20 70 9 96 -19 18 -19 60 -21 60 -2 0 5 13 5 28 0 31 -8 52 0 83 31 11 11
28 19 39 19 11 0 37 9 57 20 21 11 45 20 54 20 9 0 20 11 23 24 12 50 65 75
82 39z m-285 -655 c1 -7 1 -16 1 -19 -1 -3 9 -4 22 -2 18 4 25 -2 38 -36 17
-44 45 -54 68 -26 17 21 30 19 30 -5 0 -17 7 -20 43 -20 43 0 43 1 39 30 -5
33 2 37 25 15 8 -8 19 -13 24 -10 5 4 9 2 9 -4 0 -5 -6 -12 -12 -14 -7 -3 -3
-6 10 -6 17 -1 22 5 22 24 0 28 12 32 30 10 7 -8 17 -12 24 -8 6 4 5 -1 -3
-11 -13 -16 -11 -17 40 -10 30 4 56 8 58 10 10 9 31 -29 31 -56 0 -24 -9 -40
-37 -65 -21 -18 -41 -32 -44 -29 -4 2 -17 -21 -29 -51 -18 -45 -27 -55 -46
-55 -17 0 -24 6 -24 20 0 24 -3 24 -41 5 -16 -9 -33 -14 -37 -11 -5 3 -28 -2
-53 -11 -28 -9 -61 -13 -92 -9 -40 4 -48 3 -43 -9 7 -20 -44 -60 -56 -43 -6
10 -11 9 -19 -5 -6 -9 -15 -15 -20 -12 -5 4 -7 10 -4 15 3 5 1 11 -5 15 -5 3
-10 15 -10 26 0 10 -4 19 -10 19 -5 0 -10 -9 -10 -20 0 -18 -6 -21 -47 -20
-27 1 -57 0 -67 -2 -13 -2 -24 6 -32 21 -16 30 -48 39 -41 11 3 -11 2 -18 -2
-17 -10 3 -56 -32 -53 -40 2 -4 -2 -9 -10 -11 -10 -3 -10 -1 1 6 11 8 8 13
-14 28 -28 18 -68 27 -59 13 7 -11 -33 -21 -57 -14 -11 4 -18 9 -15 12 3 4 0
13 -7 21 -8 11 -8 13 0 9 7 -5 9 0 6 13 -3 10 -8 19 -12 18 -3 0 -9 1 -13 2
-9 3 -24 7 -34 9 -4 0 -1 8 6 16 7 8 16 12 21 9 5 -3 9 0 9 5 0 6 -12 11 -26
11 -38 0 -86 37 -75 58 4 9 6 22 4 29 -2 7 11 19 30 27 19 7 38 20 42 27 6 8
4 10 -5 4 -9 -5 -11 -4 -6 3 9 15 56 16 56 2 0 -16 26 -11 44 9 17 19 62 25
72 10 3 -5 14 -9 25 -9 11 0 19 -7 19 -16 0 -14 2 -14 16 -3 13 11 13 14 3 18
-12 3 -32 27 -33 41 -1 2 20 3 47 1 29 -1 47 2 47 8 0 7 30 11 80 11 47 0 80
4 80 10 0 6 -8 11 -17 11 -17 1 -17 2 0 6 9 2 17 9 17 14 0 14 80 11 81 -3z
m1351 -176 c2 2 22 -3 46 -11 37 -13 42 -18 42 -45 1 -29 1 -30 15 -12 8 11
15 14 15 7 0 -14 10 -27 63 -84 20 -22 37 -47 37 -55 0 -9 7 -13 19 -9 27 7
30 -6 18 -96 l-10 -79 -38 4 c-22 2 -39 0 -39 -5 0 -4 -4 -5 -10 -2 -5 3 -10
1 -10 -4 0 -6 -3 -10 -7 -10 -35 6 -51 -3 -57 -32 -3 -17 -10 -28 -14 -25 -10
6 -35 -21 -45 -48 -4 -9 -10 -15 -15 -12 -4 2 -6 -12 -4 -32 3 -30 2 -35 -9
-24 -25 23 -39 14 -39 -28 0 -29 -4 -40 -15 -40 -11 0 -15 -11 -15 -40 0 -29
4 -40 15 -40 19 0 20 -16 1 -23 -8 -3 -17 -1 -19 6 -2 7 -9 -4 -14 -23 -5 -19
-6 -36 -2 -38 8 -3 -21 -75 -32 -80 -3 -1 -4 -14 -1 -27 4 -21 1 -24 -19 -20
-27 5 -89 -12 -89 -25 0 -4 -12 -10 -27 -13 -16 -3 -45 -10 -66 -15 -54 -14
-220 -2 -203 15 10 10 -14 32 -29 27 -7 -3 -23 7 -35 23 -12 15 -27 29 -33 29
-7 1 -17 2 -22 3 -17 2 -39 72 -36 117 2 30 -2 43 -13 47 -14 5 -16 -4 -16
-58 0 -55 -2 -64 -18 -62 -21 1 -27 37 -6 37 10 0 14 12 14 39 0 22 -3 42 -7
44 -11 7 -3 107 8 107 5 0 9 -4 9 -10 0 -15 57 -12 63 3 4 8 8 9 14 1 4 -5 25
-11 46 -12 27 -2 37 1 37 12 0 9 6 13 15 10 9 -4 19 4 27 21 11 25 10 29 -17
51 -16 13 -26 26 -22 30 6 6 56 8 83 3 19 -3 34 2 34 11 0 6 -9 10 -20 10 -17
0 -20 7 -20 39 0 38 1 39 40 46 26 4 60 23 95 51 55 45 66 69 43 92 -9 9 -9
12 0 12 7 0 12 16 12 40 0 44 35 94 50 70 6 -9 17 -5 44 16 31 25 33 30 18 36
-10 5 -4 6 14 3 28 -5 32 -3 49 37 10 24 24 58 32 76 l14 33 29 -36 c16 -20
30 -35 32 -33z m-2874 -219 c3 -19 6 -20 31 -12 19 7 41 7 62 0 l34 -9 -45 -1
-45 -1 -1 -59 c-1 -48 1 -58 13 -54 10 4 14 18 12 42 -1 20 -1 42 0 49 2 17
21 15 21 -3 0 -16 26 -10 48 12 20 20 32 16 32 -12 0 -14 3 -24 8 -24 4 1 21
1 39 0 l32 -1 -4 -57 c-3 -32 -2 -50 1 -40 6 19 20 22 30 6 10 -17 -16 -29
-63 -29 -24 0 -43 -4 -43 -10 0 -5 -18 -10 -40 -10 -22 0 -40 -5 -40 -10 0 -6
16 -10 36 -8 21 1 39 -3 43 -11 5 -8 27 -14 52 -14 24 0 37 -2 28 -4 -9 -2
-19 -18 -23 -34 -3 -17 -10 -28 -16 -24 -6 3 -7 0 -4 -9 3 -9 1 -16 -5 -16 -6
0 -11 6 -11 14 0 10 -12 12 -50 8 -41 -4 -50 -2 -50 12 0 12 -10 16 -40 16
-29 0 -40 4 -40 15 0 20 -16 19 -24 -1 -3 -8 -11 -12 -17 -8 -8 5 -9 3 -5 -5
5 -8 0 -14 -13 -18 -12 -3 -21 -10 -20 -17 4 -29 -3 -36 -35 -36 -19 0 -38 5
-41 10 -4 7 3 9 19 6 25 -4 26 -3 28 45 0 27 1 53 2 58 1 5 -11 23 -26 40 -15
16 -23 33 -18 36 6 3 10 1 10 -4 0 -6 9 -11 20 -11 11 0 20 -7 20 -15 0 -8 5
-15 10 -15 6 0 10 7 10 15 0 8 5 15 10 15 6 0 10 11 10 25 0 16 6 25 15 25 8
0 15 7 15 15 0 24 -26 17 -38 -10 -16 -35 -38 -31 -52 11 -10 30 -9 38 4 53 9
10 16 32 16 49 0 33 11 39 65 38 23 -1 31 -6 33 -23z m1455 -500 c-7 -2 -13
-8 -13 -12 0 -8 55 -4 80 6 19 8 41 4 58 -10 7 -5 25 -11 40 -12 15 -1 35 -5
45 -9 10 -5 17 -4 17 3 0 6 7 11 16 11 8 0 12 5 9 10 -10 16 25 12 41 -5 9 -8
24 -15 34 -15 29 0 33 -17 8 -34 -21 -15 -19 -16 49 -16 l72 0 4 43 c4 37 4
36 4 -10 0 -30 -4 -50 -10 -46 -5 3 -8 0 -5 -7 7 -23 28 -23 28 -1 0 17 6 21
35 21 40 0 50 -26 13 -32 -15 -2 -24 -11 -26 -25 -4 -30 -47 -32 -55 -3 -3 14
-14 20 -31 20 -14 0 -26 -4 -26 -10 0 -5 -7 -10 -15 -10 -8 0 -15 -6 -15 -14
0 -23 -96 -50 -177 -51 -40 0 -73 -3 -73 -7 0 -4 -7 -4 -17 -1 -12 5 -14 3 -8
-7 6 -10 -9 -11 -84 -6 -59 5 -91 4 -91 -3 0 -5 8 -11 18 -14 14 -3 12 -6 -9
-16 -22 -11 -31 -10 -57 3 -21 11 -32 12 -34 4 -3 -8 -26 -9 -85 -2 -50 6 -86
6 -95 0 -21 -13 -49 0 -55 24 -6 24 -21 26 -29 5 -4 -8 -17 -15 -30 -15 -18 0
-24 6 -24 21 0 30 -18 59 -37 59 -13 0 -14 2 -2 17 12 15 12 16 -1 8 -13 -8
-13 -6 -1 8 7 9 17 15 21 12 5 -3 11 1 13 7 3 7 6 -9 6 -35 1 -34 5 -47 14
-45 6 3 13 14 15 26 2 12 7 22 11 22 4 0 6 14 3 30 -4 30 -4 30 46 30 33 0 56
6 66 16 24 24 73 34 163 34 65 0 83 3 83 14 0 8 8 17 18 19 24 6 90 7 75 0z
m-1165 -19 c21 -4 32 -2 32 5 0 6 8 11 18 11 13 0 23 -13 32 -40 16 -47 30
-52 30 -10 0 28 2 30 40 30 22 0 40 5 40 10 0 7 6 7 19 1 10 -6 22 -7 26 -3 5
4 5 2 1 -5 -4 -7 2 -16 13 -22 14 -8 21 -8 24 2 2 7 10 0 17 -15 7 -16 16 -28
20 -28 4 0 13 12 20 28 l14 27 4 -27 c2 -16 10 -28 18 -28 9 0 14 -11 14 -35
0 -37 -4 -39 -77 -48 -23 -2 -33 1 -33 10 0 9 -13 13 -40 13 -38 0 -40 2 -40
30 0 17 -4 30 -10 30 -5 0 -10 -17 -10 -38 0 -28 6 -42 25 -56 18 -14 22 -22
13 -27 -7 -4 -17 -1 -24 9 -10 14 -14 14 -28 3 -18 -15 -22 -51 -5 -51 10 0
39 -24 39 -33 0 -3 -8 -4 -17 -2 -10 2 -18 4 -18 5 0 1 -9 3 -20 5 -11 2 -21
9 -23 14 -2 6 -12 11 -23 11 -12 0 -18 6 -17 18 3 35 -2 62 -12 62 -5 0 -10
-10 -11 -22 -1 -21 -1 -22 -7 -3 -5 13 -18 21 -37 23 -16 2 -31 8 -33 13 -2 5
-9 9 -16 9 -8 0 -25 9 -40 21 -22 17 -26 28 -26 71 l0 50 38 -5 c20 -3 52 -9
70 -13z m3272 -1018 c9 -2 15 -14 15 -31 0 -16 6 -30 13 -32 6 -3 12 0 12 6 0
6 5 11 10 11 12 0 51 -61 45 -70 -3 -4 14 -7 37 -6 45 1 65 24 29 33 -12 3
-21 9 -21 13 0 12 36 40 43 33 4 -3 7 0 7 8 1 10 3 9 11 -3 6 -12 22 -18 44
-18 24 0 35 -5 35 -15 0 -8 -9 -15 -19 -15 -10 0 -21 -7 -25 -15 -5 -14 -1
-17 33 -19 22 -2 39 -35 23 -45 -8 -4 -13 -14 -12 -22 1 -8 2 -32 1 -54 l-1
-40 -77 -13 c-68 -11 -92 -22 -93 -44 0 -4 13 -3 30 2 16 5 54 6 84 3 45 -5
55 -9 58 -27 4 -19 1 -21 -41 -18 -30 2 -53 -2 -66 -12 -19 -14 -16 -15 42
-16 34 0 63 -4 65 -10 2 -6 19 -4 43 5 22 8 54 14 72 15 17 0 34 6 36 13 3 7
6 5 6 -5 1 -13 9 -18 32 -18 30 0 31 1 28 43 -4 38 -2 43 16 41 11 -1 23 -3
28 -3 4 -1 7 -19 7 -41 0 -24 4 -39 11 -38 25 6 18 -22 -10 -43 -35 -26 -39
-39 -12 -39 13 0 19 -7 19 -25 0 -14 -4 -28 -9 -31 -5 -3 -9 -27 -9 -55 0 -27
-4 -49 -10 -49 -5 0 -10 -18 -10 -40 0 -29 -4 -40 -15 -40 -19 0 -19 -11 0
-36 14 -18 14 -18 15 9 0 18 5 27 16 27 12 0 15 -9 12 -35 -1 -20 3 -39 9 -43
12 -8 35 -122 24 -122 -3 0 -5 -31 -3 -70 2 -38 8 -70 13 -70 5 0 9 -49 9
-110 0 -113 -2 -118 -42 -111 -5 0 -8 -17 -8 -39 0 -29 4 -40 15 -40 11 0 15
-11 15 -39 0 -22 -4 -42 -10 -46 -5 -3 -7 -11 -4 -18 3 -8 -4 -13 -17 -14 -28
-2 -60 -33 -41 -40 17 -6 15 -29 -4 -58 -15 -23 -15 -25 0 -25 9 0 16 -5 16
-11 0 -8 4 -9 13 0 11 8 16 5 25 -15 16 -33 15 -40 -4 -62 -13 -15 -26 -18
-65 -14 -45 4 -49 3 -49 -17 0 -16 -6 -21 -25 -21 -14 0 -25 5 -25 11 0 6 -7
4 -15 -5 -8 -8 -15 -17 -15 -20 0 -3 32 -6 71 -6 49 0 68 -3 63 -11 -4 -7 -21
-9 -41 -6 -19 3 -41 3 -49 0 -16 -6 -20 -43 -4 -43 6 0 10 -4 10 -10 0 -5 -14
-10 -30 -10 -17 0 -41 -9 -53 -21 l-22 -20 28 -21 c31 -23 36 -38 8 -31 -23 6
-35 -11 -27 -41 5 -22 36 -33 36 -12 0 6 4 6 11 -1 14 -14 3 -33 -39 -68 -26
-22 -36 -25 -42 -15 -5 8 -15 10 -26 5 -13 -5 -15 -9 -6 -12 6 -3 10 -8 7 -13
-3 -4 2 -13 10 -20 10 -9 15 -9 15 -1 0 6 17 11 40 11 28 0 40 4 40 14 0 9 7
12 20 9 11 -3 20 -14 20 -25 0 -11 -9 -22 -20 -25 -11 -3 -20 -12 -20 -19 0
-8 -8 -14 -19 -14 -10 0 -24 -7 -31 -15 -7 -8 -16 -12 -21 -9 -5 3 -9 0 -9 -7
0 -7 -11 -2 -25 11 l-24 23 -7 -42 c-4 -22 -10 -41 -15 -41 -5 0 -9 -13 -9
-30 0 -16 -4 -30 -10 -30 -5 0 -10 -4 -10 -10 0 -5 12 -10 26 -10 14 0 24 -5
22 -11 -2 -6 -6 -9 -8 -8 -3 1 -15 -3 -27 -10 -20 -10 -23 -9 -23 9 0 14 -6
20 -22 20 -30 -1 -58 -56 -58 -115 0 -25 -5 -45 -12 -48 -7 -2 -1 -8 15 -12
35 -9 36 -40 2 -49 -23 -6 -26 -11 -24 -51 2 -25 6 -45 11 -45 4 0 3 -9 -4
-19 -7 -11 -17 -19 -22 -18 -6 1 -12 -8 -14 -20 -3 -18 1 -23 17 -23 12 0 21
-6 21 -15 0 -8 -2 -15 -4 -15 -2 0 -11 -3 -20 -6 -12 -4 -16 0 -16 15 0 15 -6
21 -21 21 -20 0 -21 -4 -16 -54 4 -43 2 -56 -10 -60 -25 -10 -33 -7 -33 14 0
11 -6 20 -13 20 -11 0 -12 -11 -6 -47 4 -27 8 -56 8 -65 1 -11 9 -18 21 -18
11 0 20 -6 20 -14 0 -9 -13 -14 -40 -14 -29 -1 -40 3 -40 14 0 8 -11 19 -25
24 -14 5 -25 16 -25 25 0 8 -7 15 -16 15 -10 0 -14 -7 -12 -17 2 -10 10 -17
16 -15 7 1 12 -9 12 -23 0 -24 -2 -25 -65 -25 -65 0 -65 0 -65 -29 0 -16 -3
-43 -6 -60 -6 -30 -6 -31 30 -31 20 0 36 3 36 8 0 4 20 6 43 4 31 -3 49 1 61
13 12 13 33 17 81 16 58 -1 65 1 65 19 0 13 12 25 35 34 22 10 37 24 41 40 3
14 10 26 16 26 5 0 6 -5 2 -12 -4 -7 -3 -8 5 -4 6 4 18 2 26 -4 8 -6 20 -8 27
-4 10 6 11 5 1 -7 -7 -8 -11 -24 -11 -34 2 -17 8 -20 49 -17 45 4 49 2 55 -22
3 -14 9 -25 13 -24 3 1 20 -5 36 -14 l30 -16 -30 -8 c-16 -5 -32 -9 -35 -10
-59 -16 -70 -27 -70 -65 0 -28 -4 -39 -15 -39 -11 0 -15 -11 -15 -39 0 -37 1
-38 30 -36 16 1 27 -1 24 -6 -3 -5 -10 -7 -15 -4 -5 4 -9 -1 -9 -10 0 -9 4
-14 9 -11 5 4 5 -10 0 -32 -7 -30 -5 -39 8 -49 9 -7 20 -13 25 -13 4 0 8 -9 8
-20 0 -17 -7 -20 -40 -20 -29 0 -40 -4 -40 -15 0 -8 4 -15 9 -15 12 0 29 -51
24 -67 -6 -18 -33 -16 -33 2 0 8 -4 15 -9 15 -4 0 -12 -33 -15 -72 -8 -79 -33
-168 -47 -168 -5 0 -9 -18 -9 -39 0 -25 -5 -41 -14 -44 -8 -3 -18 -22 -22 -41
-3 -20 -9 -36 -13 -36 -3 0 -2 -36 3 -79 7 -63 7 -83 -4 -96 -12 -15 -14 -15
-23 0 -8 15 -10 15 -28 -1 -10 -9 -16 -21 -13 -25 3 -5 0 -9 -6 -9 -8 0 -8 -6
0 -20 9 -17 7 -22 -15 -32 -27 -12 -32 -27 -13 -46 9 -9 7 -12 -13 -12 -19 0
-21 -2 -9 -10 13 -8 12 -10 -2 -10 -13 0 -18 -8 -18 -29 0 -17 -4 -33 -10 -36
-5 -3 -10 -15 -10 -26 0 -13 -12 -25 -35 -35 -20 -8 -33 -19 -29 -25 3 -6 0
-24 -7 -40 -9 -22 -17 -29 -31 -26 -10 3 -16 1 -13 -3 3 -5 -15 -25 -39 -45
-29 -23 -43 -42 -39 -51 6 -17 -33 -64 -54 -64 -7 0 -13 -5 -13 -11 0 -5 -20
-30 -45 -55 -25 -24 -45 -48 -45 -54 0 -5 -6 -10 -13 -10 -12 0 -67 -56 -67
-69 0 -3 -9 -12 -20 -19 -12 -7 -19 -16 -16 -21 3 -4 -5 -14 -18 -21 -13 -7
-32 -28 -42 -46 -18 -33 -21 -36 -46 -38 -18 -1 -48 -28 -48 -42 0 -7 -11 -21
-25 -32 -14 -11 -25 -29 -25 -39 0 -11 -11 -26 -25 -33 -14 -8 -31 -25 -38
-39 -8 -17 -22 -27 -39 -29 -17 -2 -25 -8 -22 -16 3 -7 -10 -27 -29 -43 -19
-17 -38 -40 -42 -52 -3 -12 -15 -21 -26 -21 -10 0 -19 -5 -19 -11 0 -6 -7 -17
-15 -26 -9 -8 -19 -29 -22 -45 -3 -16 -15 -36 -27 -46 -22 -17 -58 -76 -102
-164 -13 -25 -28 -49 -34 -53 -6 -3 -8 -11 -5 -16 4 -5 -1 -9 -10 -9 -9 0 -13
5 -10 10 3 6 1 10 -5 10 -7 0 -10 -7 -6 -15 3 -8 -1 -21 -9 -29 -8 -8 -15 -19
-15 -25 0 -6 -4 -11 -8 -11 -4 0 -16 -24 -26 -53 -10 -28 -24 -56 -30 -62 -6
-5 -22 -27 -36 -47 -13 -20 -28 -34 -32 -32 -4 3 -8 -2 -8 -10 0 -9 -9 -25
-20 -36 -11 -11 -23 -33 -26 -49 -4 -20 -15 -31 -40 -40 -23 -8 -34 -19 -34
-32 0 -11 -7 -19 -16 -19 -20 0 -53 -39 -54 -62 0 -17 -4 -20 -32 -22 -19 -1
-47 -27 -69 -63 -14 -22 -28 -33 -44 -33 -13 0 -30 -7 -38 -15 -8 -8 -17 -11
-21 -8 -3 4 -6 1 -6 -4 0 -6 6 -14 13 -16 6 -3 -3 -3 -20 0 -29 5 -33 3 -33
-16 0 -11 -9 -30 -19 -40 -11 -11 -21 -37 -23 -58 -2 -31 -7 -39 -26 -41 -24
-4 -82 18 -82 30 0 5 -7 8 -15 8 -8 0 -15 -9 -15 -19 0 -10 -6 -21 -13 -24
-10 -4 -12 3 -9 25 3 21 1 29 -7 24 -7 -5 -9 -1 -5 8 3 9 2 16 -4 16 -5 0 -13
11 -16 25 -4 15 -14 25 -24 25 -15 0 -28 18 -49 68 -3 7 3 12 16 12 12 0 21 4
21 9 0 5 -11 8 -24 5 -23 -4 -34 8 -37 41 0 6 -7 17 -15 27 -9 9 -16 23 -18
30 -1 8 -17 30 -36 50 -26 26 -49 39 -88 47 -36 7 -63 21 -84 41 -16 17 -37
30 -46 30 -10 0 -28 14 -42 30 -14 17 -33 30 -43 30 -11 0 -20 10 -24 30 -3
17 -9 30 -14 30 -5 0 -9 7 -9 16 0 8 -4 13 -9 10 -5 -4 -12 7 -16 24 -4 20
-13 30 -25 30 -12 0 -17 5 -14 13 3 8 -2 20 -11 27 -8 7 -15 19 -15 26 0 8 -7
14 -15 14 -9 0 -18 7 -21 15 -4 8 -11 15 -18 15 -16 0 -66 59 -66 78 0 24 -40
61 -59 55 -9 -4 -19 -11 -23 -17 -4 -6 -6 -2 -6 9 3 32 -12 76 -22 70 -6 -3
-10 1 -10 9 0 20 -55 60 -102 76 -37 11 -44 26 -37 76 0 4 -3 10 -8 13 -5 3
-17 19 -27 35 -12 19 -21 25 -26 17 -5 -8 -12 -4 -23 13 -10 14 -17 30 -17 36
0 6 -11 16 -25 22 -14 6 -25 15 -25 20 0 5 -13 21 -28 36 -49 47 -92 109 -109
157 -8 26 -23 49 -32 53 -20 7 -40 32 -41 52 -1 8 -17 35 -36 60 -19 25 -37
53 -40 63 -4 9 -12 17 -18 17 -19 0 -83 72 -100 113 -8 20 -26 47 -39 60 -13
12 -35 46 -47 74 -12 29 -26 53 -31 53 -5 0 -9 18 -9 40 0 33 -3 40 -20 40
-16 0 -19 5 -14 30 9 43 -3 79 -30 91 -20 10 -52 56 -46 68 1 2 -5 8 -14 13
-9 5 -16 15 -16 22 0 8 -9 16 -21 19 -12 3 -18 10 -14 17 3 6 3 10 -2 9 -30
-5 -43 3 -43 26 0 23 -4 25 -41 25 l-41 0 3 38 c2 47 -11 115 -24 124 -6 3
-11 28 -12 55 0 26 -6 58 -13 70 -7 12 -12 33 -12 47 0 13 -4 26 -9 28 -6 1
-12 39 -15 83 -5 80 -12 115 -25 115 -10 0 -31 82 -27 105 3 11 5 28 5 38 1 9
8 17 16 17 8 0 15 6 15 14 0 8 9 18 20 21 30 10 80 -4 80 -22 0 -13 8 -14 43
-10 23 3 35 3 26 -1 -13 -6 -14 -14 -6 -42 6 -24 11 -30 16 -20 4 10 20 15 44
15 34 0 37 -2 37 -27 0 -23 5 -28 23 -28 13 0 28 5 35 12 6 6 15 8 19 3 5 -4
2 -10 -4 -12 -18 -6 -16 -51 2 -69 11 -11 20 -12 32 -5 10 5 16 13 13 17 -3 4
5 10 18 15 16 6 22 5 22 -6 0 -11 12 -15 41 -15 35 0 40 -3 37 -20 -2 -12 -7
-21 -13 -21 -16 0 -26 -40 -14 -55 6 -8 15 -11 20 -8 5 3 9 1 9 -5 0 -5 9 -13
20 -16 12 -4 20 -15 20 -28 0 -13 8 -34 17 -47 l18 -25 5 30 c4 21 12 31 28
33 12 2 22 8 22 13 0 6 12 21 26 34 22 20 24 27 14 40 -6 8 -15 14 -18 13 -38
-4 -45 33 -9 50 12 6 16 11 10 11 -8 1 -13 16 -13 42 0 24 4 38 10 34 20 -13
9 41 -12 60 -20 17 -21 20 -5 23 21 4 20 1 2 46 -17 40 -23 43 -40 20 -9 -14
-11 -11 -11 14 1 17 4 34 9 38 4 4 7 16 7 26 0 14 -8 18 -40 18 -48 0 -51 12
-10 42 34 25 38 38 13 38 -11 0 -24 15 -35 40 -9 23 -23 40 -32 40 -12 0 -16
10 -16 39 0 22 -4 51 -10 66 -8 22 -13 24 -30 15 -11 -6 -20 -18 -20 -28 0
-14 -4 -13 -22 6 l-23 23 27 24 c33 28 27 35 -30 35 -38 0 -49 5 -78 35 l-33
36 -16 -31 c-19 -37 -30 -38 -49 -2 -11 19 -15 22 -16 10 0 -21 -20 -24 -20
-4 0 8 5 18 10 21 6 3 10 28 10 55 0 46 -2 49 -34 60 -19 6 -37 17 -40 25 -3
8 -14 15 -24 15 -11 0 -22 12 -30 34 -7 19 -33 55 -58 80 -45 46 -61 57 -49
34 4 -7 -2 -2 -13 12 -14 17 -18 29 -12 41 11 20 -6 39 -37 39 -17 0 -23 6
-23 21 0 29 -18 59 -35 59 -8 0 -15 6 -15 13 0 14 -27 40 -53 50 -13 5 -17 18
-17 52 0 38 3 45 20 45 11 0 20 5 20 10 0 6 -10 10 -23 10 -13 0 -29 6 -36 13
-11 10 -12 9 -6 -1 5 -10 1 -13 -16 -10 -30 4 -48 58 -18 58 14 0 18 6 17 25
-1 13 -8 27 -15 29 -18 7 -16 26 2 26 22 0 19 8 -20 46 -40 39 -45 41 -45 18
0 -14 -3 -14 -15 -4 -20 16 -19 30 2 45 17 13 17 14 0 32 -9 11 -17 25 -17 32
0 6 -11 17 -25 23 -14 6 -25 19 -25 30 0 10 -4 18 -9 18 -5 0 -14 14 -21 30
-7 17 -18 30 -24 30 -6 0 -3 7 7 14 13 11 17 29 17 90 l0 76 33 0 34 0 -12
-80 c-10 -72 -10 -80 4 -80 13 0 16 8 13 40 -2 22 0 40 5 40 5 0 7 18 5 40 -3
32 -1 40 12 40 9 0 16 5 16 11 0 14 -41 48 -58 49 -7 0 -20 7 -28 15 -16 16
-17 15 29 29 7 2 13 15 15 30 1 20 -3 26 -18 26 -14 0 -20 7 -21 23 -1 40 -6
67 -11 72 -3 4 -1 25 4 48 11 48 59 96 98 97 18 0 21 3 13 11 -8 8 -25 8 -62
-2 -50 -13 -51 -13 -51 -51 0 -31 -3 -38 -20 -38 -16 0 -20 7 -20 32 0 17 5
46 12 65 11 29 15 32 43 29 45 -6 66 10 26 19 -40 9 -39 28 2 65 l32 29 -28 1
c-36 0 -55 40 -26 54 10 5 19 13 19 18 0 4 11 8 25 8 14 0 25 -5 25 -11 0 -5
-4 -8 -9 -4 -17 10 -20 -9 -5 -30 12 -15 14 -16 14 -3 0 9 3 24 6 32 4 12 -4
20 -30 31 -43 18 -45 28 -11 43 34 15 33 16 37 -10 3 -21 3 -21 34 5 37 32 44
33 44 10 0 -14 3 -14 12 -5 10 10 10 15 -1 21 -16 10 -8 41 11 41 8 0 20 11
28 24 15 24 16 24 60 9 31 -11 45 -12 48 -4 2 6 10 11 18 11 10 0 14 -12 14
-40 0 -36 3 -40 25 -40 18 0 25 5 25 19 0 10 8 29 18 41 l19 23 21 -23 c12
-13 22 -32 22 -42 0 -15 8 -18 50 -18 48 0 51 -1 57 -30 7 -36 23 -46 82 -49
35 -2 51 -10 83 -42 30 -30 48 -39 73 -39 18 0 36 -6 38 -12 4 -10 8 -10 15 1
5 7 15 10 21 7 8 -5 7 -12 -4 -22 -8 -9 -15 -21 -15 -29 0 -15 27 -28 35 -16
9 16 45 20 45 5 0 -8 -16 -16 -40 -20 -22 -4 -40 -10 -40 -14 0 -10 26 -20 51
-20 10 0 34 -9 54 -20 20 -11 47 -20 60 -20 22 0 25 -4 25 -40 0 -28 4 -40 15
-40 10 0 14 -11 13 -42 l0 -43 -49 3 c-39 3 -49 1 -49 -11 0 -9 -9 -19 -20
-22 -11 -3 -20 -15 -20 -26 0 -17 7 -19 71 -19 l71 0 -4 -40 c-2 -25 0 -39 7
-37 5 2 11 42 13 90 l3 87 32 1 c18 0 53 3 80 5 37 4 47 1 47 -11 0 -10 -10
-15 -31 -15 -27 0 -30 -2 -19 -16 20 -23 51 -38 48 -22 -2 9 11 14 40 16 23 2
42 7 42 13 0 5 -7 9 -15 9 -11 0 -15 11 -15 40 0 36 -2 40 -25 40 -22 0 -25 4
-25 40 0 29 4 40 15 40 24 0 65 30 65 47 0 11 9 14 35 11 20 -2 35 0 35 7 0 5
4 4 9 -4 5 -7 14 -10 20 -7 23 15 10 26 -31 27 -42 1 -42 1 -15 12 36 14 34
39 -4 56 -22 10 -28 16 -20 24 8 8 14 8 23 -1 7 -7 34 -12 60 -12 41 0 48 3
48 20 0 19 25 27 69 21 7 -2 10 2 6 8 -9 16 4 13 21 -4 19 -19 29 -19 47 -1
12 13 16 12 27 -10 12 -21 11 -26 -10 -44 -13 -11 -27 -20 -32 -20 -15 0 -9
-18 9 -24 10 -4 20 -1 25 9 5 8 16 15 23 15 8 0 15 7 15 15 0 8 5 15 10 15 6
0 10 6 10 14 0 22 18 29 66 27 34 -1 46 3 54 19 6 11 21 20 35 20 14 0 25 7
27 17 3 16 4 16 20 0 9 -9 26 -17 37 -17 12 0 21 -5 21 -10 0 -7 6 -7 19 0 11
5 29 10 41 10 12 0 18 5 15 10 -3 6 1 10 9 10 9 0 16 -4 16 -10 0 -5 9 -10 20
-10 11 0 20 4 20 9 0 18 85 22 129 6 53 -18 51 -18 51 -1 0 16 49 33 116 38
20 2 30 7 27 16 -8 20 41 14 60 -8 21 -24 50 -26 73 -3 15 16 15 17 -2 24 -14
6 -11 8 14 8 22 1 32 -4 32 -14 0 -18 4 -18 48 -3 31 12 35 11 52 -12 l19 -25
17 24 c9 12 19 19 23 13 3 -5 29 -12 57 -16 39 -4 55 -2 64 9 7 8 21 15 32 15
10 0 30 12 43 28 13 15 26 24 30 20 10 -9 -20 -39 -30 -30 -5 4 -5 2 -2 -4 4
-7 18 -14 32 -16 13 -3 22 -2 20 3 -9 14 12 19 81 20 42 1 70 -3 72 -10 6 -17
82 -14 82 3 0 12 34 30 53 27 4 -1 7 3 7 7 0 4 9 8 20 9 12 1 29 12 39 25 16
19 21 20 35 9 9 -8 17 -12 19 -10 1 2 7 13 13 24 6 11 19 22 29 24 10 2 30 16
44 32 27 31 49 36 70 17 11 -11 12 -10 7 0 -4 7 -3 18 2 25 6 7 10 17 9 22 -1
6 10 11 26 13 15 2 27 9 27 18 0 10 12 14 39 14 23 0 41 5 44 13 3 8 19 14 37
15 17 0 37 5 43 10 7 6 25 12 42 14 21 2 31 9 33 23 3 17 1 18 -8 5 -10 -13
-11 -12 -6 3 3 10 6 25 6 33 0 8 7 14 16 14 8 0 13 -4 10 -9 -10 -15 78 -20
90 -5 6 8 23 14 37 14 16 0 40 14 64 38 22 22 52 42 69 46 54 13 85 29 80 42
-5 12 41 34 70 34 15 0 42 26 60 56 9 16 7 23 -13 42 -13 12 -30 19 -36 15 -7
-4 -6 0 2 10 7 9 20 17 27 17 8 0 14 5 14 10 0 6 5 10 11 10 7 0 9 -12 5 -35
-4 -19 -4 -35 0 -35 12 0 64 34 64 42 0 4 9 8 19 8 11 0 23 5 26 10 3 6 19 10
36 10 16 0 29 5 29 10 0 6 -25 10 -55 10 -30 0 -55 -4 -55 -10 0 -5 -9 -10
-21 -10 -11 0 -17 4 -14 10 3 6 -1 7 -9 4 -9 -3 -16 -1 -16 6 0 6 -4 8 -10 5
-5 -3 -10 -2 -10 4 0 16 72 36 118 33 25 -2 42 1 42 7 0 6 -5 11 -11 11 -5 0
-7 5 -4 11 4 6 14 7 24 4 9 -4 23 -8 31 -9z"/>
<path d="M10218 8338 c-3 -42 -4 -43 -38 -42 -35 2 -35 2 -32 -38 3 -30 12
-45 38 -66 21 -16 34 -36 34 -49 0 -19 5 -23 34 -23 54 0 66 8 56 36 -10 25
-4 54 13 65 14 9 -14 44 -35 46 -10 0 -29 1 -42 2 -24 1 -24 3 -19 56 3 30 3
55 0 55 -3 0 -7 -19 -9 -42z"/>
<path d="M12380 11484 c0 -9 -7 -22 -16 -29 -13 -9 -16 -29 -15 -103 2 -100 2
-99 -60 -93 -9 1 -19 -5 -22 -14 -5 -10 0 -15 13 -15 14 0 20 -7 20 -22 0 -15
10 -27 27 -35 33 -16 53 -17 53 -3 0 6 7 10 15 10 11 0 15 11 15 40 0 29 -4
40 -15 40 -11 0 -15 11 -15 40 0 29 4 40 15 40 11 0 15 11 15 40 0 22 5 40 10
40 6 0 10 18 10 40 0 36 -2 40 -25 40 -17 0 -25 -6 -25 -16z"/>
</g>
</svg>
